<mxfile host="app.diagrams.net" modified="2024-01-06T16:37:56.357Z" agent="Mozilla/5.0 (Windows NT 10.0; Win64; x64) AppleWebKit/537.36 (KHTML, like Gecko) Chrome/120.0.0.0 Safari/537.36" etag="B0DTyn48uQ4l8FiH-Bry" version="22.1.17" type="device" pages="2">
  <diagram name="module_diagram" id="wGj9Z4ek3EJbj8VVhBXp">
    <mxGraphModel dx="570" dy="-96" grid="1" gridSize="10" guides="1" tooltips="1" connect="1" arrows="1" fold="1" page="0" pageScale="1" pageWidth="827" pageHeight="1169" math="0" shadow="0">
      <root>
        <mxCell id="0" />
        <mxCell id="1" parent="0" />
        <mxCell id="NnP0CMICDvvqzzj7FkAU-10" value="" style="rounded=0;whiteSpace=wrap;html=1;" vertex="1" parent="1">
          <mxGeometry x="320" y="640" width="290" height="200" as="geometry" />
        </mxCell>
        <mxCell id="NnP0CMICDvvqzzj7FkAU-11" value="" style="endArrow=classic;html=1;rounded=0;" edge="1" parent="1">
          <mxGeometry width="50" height="50" relative="1" as="geometry">
            <mxPoint x="270" y="655" as="sourcePoint" />
            <mxPoint x="320" y="655" as="targetPoint" />
          </mxGeometry>
        </mxCell>
        <mxCell id="NnP0CMICDvvqzzj7FkAU-12" value="" style="endArrow=classic;html=1;rounded=0;" edge="1" parent="1">
          <mxGeometry width="50" height="50" relative="1" as="geometry">
            <mxPoint x="270" y="670" as="sourcePoint" />
            <mxPoint x="320" y="670" as="targetPoint" />
          </mxGeometry>
        </mxCell>
        <mxCell id="NnP0CMICDvvqzzj7FkAU-13" value="clk" style="text;html=1;strokeColor=none;fillColor=none;align=right;verticalAlign=middle;whiteSpace=wrap;rounded=0;" vertex="1" parent="1">
          <mxGeometry x="320" y="644" width="20" height="20" as="geometry" />
        </mxCell>
        <mxCell id="NnP0CMICDvvqzzj7FkAU-14" value="reset_n" style="text;html=1;strokeColor=none;fillColor=none;align=right;verticalAlign=middle;whiteSpace=wrap;rounded=0;" vertex="1" parent="1">
          <mxGeometry x="346" y="659" width="20" height="20" as="geometry" />
        </mxCell>
        <mxCell id="NnP0CMICDvvqzzj7FkAU-15" value="" style="endArrow=classic;html=1;rounded=0;entryX=0;entryY=0.2;entryDx=0;entryDy=0;entryPerimeter=0;" edge="1" parent="1">
          <mxGeometry width="50" height="50" relative="1" as="geometry">
            <mxPoint x="270" y="684" as="sourcePoint" />
            <mxPoint x="320" y="684.0000000000001" as="targetPoint" />
          </mxGeometry>
        </mxCell>
        <mxCell id="NnP0CMICDvvqzzj7FkAU-16" value="en" style="text;html=1;strokeColor=none;fillColor=none;align=right;verticalAlign=middle;whiteSpace=wrap;rounded=0;" vertex="1" parent="1">
          <mxGeometry x="320" y="673" width="20" height="20" as="geometry" />
        </mxCell>
        <mxCell id="NnP0CMICDvvqzzj7FkAU-17" value="" style="endArrow=classic;html=1;rounded=0;" edge="1" parent="1">
          <mxGeometry width="50" height="50" relative="1" as="geometry">
            <mxPoint x="270" y="713" as="sourcePoint" />
            <mxPoint x="320" y="713" as="targetPoint" />
          </mxGeometry>
        </mxCell>
        <mxCell id="NnP0CMICDvvqzzj7FkAU-18" value="" style="endArrow=classic;html=1;rounded=0;" edge="1" parent="1">
          <mxGeometry width="50" height="50" relative="1" as="geometry">
            <mxPoint x="270" y="729" as="sourcePoint" />
            <mxPoint x="320" y="729" as="targetPoint" />
          </mxGeometry>
        </mxCell>
        <mxCell id="NnP0CMICDvvqzzj7FkAU-19" value="cipher_key_in [127:0]" style="text;html=1;strokeColor=none;fillColor=none;align=left;verticalAlign=middle;whiteSpace=wrap;rounded=0;" vertex="1" parent="1">
          <mxGeometry x="321.5" y="719" width="121" height="20" as="geometry" />
        </mxCell>
        <mxCell id="NnP0CMICDvvqzzj7FkAU-20" value="" style="endArrow=classic;html=1;rounded=0;entryX=0;entryY=0.2;entryDx=0;entryDy=0;entryPerimeter=0;" edge="1" parent="1">
          <mxGeometry width="50" height="50" relative="1" as="geometry">
            <mxPoint x="270" y="746" as="sourcePoint" />
            <mxPoint x="320" y="746.0000000000001" as="targetPoint" />
          </mxGeometry>
        </mxCell>
        <mxCell id="NnP0CMICDvvqzzj7FkAU-21" value="cipher_new_en" style="text;html=1;strokeColor=none;fillColor=none;align=right;verticalAlign=middle;whiteSpace=wrap;rounded=0;" vertex="1" parent="1">
          <mxGeometry x="386" y="735" width="20" height="20" as="geometry" />
        </mxCell>
        <mxCell id="NnP0CMICDvvqzzj7FkAU-22" value="plain_text_in [127:0]" style="text;html=1;strokeColor=none;fillColor=none;align=left;verticalAlign=middle;whiteSpace=wrap;rounded=0;" vertex="1" parent="1">
          <mxGeometry x="321.5" y="702" width="118.5" height="20" as="geometry" />
        </mxCell>
        <mxCell id="NnP0CMICDvvqzzj7FkAU-24" value="round_key_10 [127:0]" style="text;html=1;strokeColor=none;fillColor=none;align=left;verticalAlign=middle;whiteSpace=wrap;rounded=0;" vertex="1" parent="1">
          <mxGeometry x="321.5" y="797" width="121" height="20" as="geometry" />
        </mxCell>
        <mxCell id="NnP0CMICDvvqzzj7FkAU-25" value="decipher_new_en" style="text;html=1;strokeColor=none;fillColor=none;align=right;verticalAlign=middle;whiteSpace=wrap;rounded=0;" vertex="1" parent="1">
          <mxGeometry x="401" y="813" width="20" height="20" as="geometry" />
        </mxCell>
        <mxCell id="NnP0CMICDvvqzzj7FkAU-26" value="cipher_text_in [127:0]" style="text;html=1;strokeColor=none;fillColor=none;align=left;verticalAlign=middle;whiteSpace=wrap;rounded=0;" vertex="1" parent="1">
          <mxGeometry x="321.5" y="780" width="118.5" height="20" as="geometry" />
        </mxCell>
        <mxCell id="NnP0CMICDvvqzzj7FkAU-27" value="" style="endArrow=classic;html=1;rounded=0;" edge="1" parent="1">
          <mxGeometry width="50" height="50" relative="1" as="geometry">
            <mxPoint x="270" y="790" as="sourcePoint" />
            <mxPoint x="320" y="790.3" as="targetPoint" />
          </mxGeometry>
        </mxCell>
        <mxCell id="NnP0CMICDvvqzzj7FkAU-28" value="" style="endArrow=classic;html=1;rounded=0;" edge="1" parent="1">
          <mxGeometry width="50" height="50" relative="1" as="geometry">
            <mxPoint x="270" y="806" as="sourcePoint" />
            <mxPoint x="320" y="806.3" as="targetPoint" />
          </mxGeometry>
        </mxCell>
        <mxCell id="NnP0CMICDvvqzzj7FkAU-30" value="round_key_10_out [127:0]" style="text;html=1;strokeColor=none;fillColor=none;align=right;verticalAlign=middle;whiteSpace=wrap;rounded=0;" vertex="1" parent="1">
          <mxGeometry x="462" y="719" width="146" height="20" as="geometry" />
        </mxCell>
        <mxCell id="NnP0CMICDvvqzzj7FkAU-31" value="cipher_ready" style="text;html=1;strokeColor=none;fillColor=none;align=right;verticalAlign=middle;whiteSpace=wrap;rounded=0;" vertex="1" parent="1">
          <mxGeometry x="588" y="735" width="20" height="20" as="geometry" />
        </mxCell>
        <mxCell id="NnP0CMICDvvqzzj7FkAU-32" value="cipher_text_out [127:0]" style="text;html=1;strokeColor=none;fillColor=none;align=right;verticalAlign=middle;whiteSpace=wrap;rounded=0;" vertex="1" parent="1">
          <mxGeometry x="472" y="702" width="133.5" height="20" as="geometry" />
        </mxCell>
        <mxCell id="NnP0CMICDvvqzzj7FkAU-34" value="decipher_ready" style="text;html=1;strokeColor=none;fillColor=none;align=right;verticalAlign=middle;whiteSpace=wrap;rounded=0;" vertex="1" parent="1">
          <mxGeometry x="585.5" y="813" width="20" height="20" as="geometry" />
        </mxCell>
        <mxCell id="NnP0CMICDvvqzzj7FkAU-35" value="plain_text_out [127:0]" style="text;html=1;strokeColor=none;fillColor=none;align=right;verticalAlign=middle;whiteSpace=wrap;rounded=0;" vertex="1" parent="1">
          <mxGeometry x="488.25" y="796" width="118.5" height="20" as="geometry" />
        </mxCell>
        <mxCell id="NnP0CMICDvvqzzj7FkAU-36" value="" style="endArrow=classic;html=1;rounded=0;" edge="1" parent="1">
          <mxGeometry width="50" height="50" relative="1" as="geometry">
            <mxPoint x="270" y="822.85" as="sourcePoint" />
            <mxPoint x="320" y="823.15" as="targetPoint" />
          </mxGeometry>
        </mxCell>
        <mxCell id="NnP0CMICDvvqzzj7FkAU-37" value="" style="endArrow=classic;html=1;rounded=0;" edge="1" parent="1">
          <mxGeometry width="50" height="50" relative="1" as="geometry">
            <mxPoint x="610" y="714.93" as="sourcePoint" />
            <mxPoint x="660" y="714.93" as="targetPoint" />
          </mxGeometry>
        </mxCell>
        <mxCell id="NnP0CMICDvvqzzj7FkAU-38" value="" style="endArrow=classic;html=1;rounded=0;" edge="1" parent="1">
          <mxGeometry width="50" height="50" relative="1" as="geometry">
            <mxPoint x="610" y="730.93" as="sourcePoint" />
            <mxPoint x="660" y="730.93" as="targetPoint" />
          </mxGeometry>
        </mxCell>
        <mxCell id="NnP0CMICDvvqzzj7FkAU-39" value="" style="endArrow=classic;html=1;rounded=0;entryX=0;entryY=0.2;entryDx=0;entryDy=0;entryPerimeter=0;" edge="1" parent="1">
          <mxGeometry width="50" height="50" relative="1" as="geometry">
            <mxPoint x="610" y="745.93" as="sourcePoint" />
            <mxPoint x="660" y="745.9300000000001" as="targetPoint" />
          </mxGeometry>
        </mxCell>
        <mxCell id="NnP0CMICDvvqzzj7FkAU-40" value="" style="endArrow=classic;html=1;rounded=0;" edge="1" parent="1">
          <mxGeometry width="50" height="50" relative="1" as="geometry">
            <mxPoint x="610" y="805" as="sourcePoint" />
            <mxPoint x="660" y="805.3" as="targetPoint" />
          </mxGeometry>
        </mxCell>
        <mxCell id="NnP0CMICDvvqzzj7FkAU-41" value="" style="endArrow=classic;html=1;rounded=0;" edge="1" parent="1">
          <mxGeometry width="50" height="50" relative="1" as="geometry">
            <mxPoint x="610" y="823.85" as="sourcePoint" />
            <mxPoint x="660" y="824.15" as="targetPoint" />
          </mxGeometry>
        </mxCell>
        <mxCell id="NnP0CMICDvvqzzj7FkAU-42" value="" style="endArrow=none;html=1;rounded=0;" edge="1" parent="1">
          <mxGeometry width="50" height="50" relative="1" as="geometry">
            <mxPoint x="626" y="810" as="sourcePoint" />
            <mxPoint x="636" y="800" as="targetPoint" />
          </mxGeometry>
        </mxCell>
        <mxCell id="NnP0CMICDvvqzzj7FkAU-43" value="" style="endArrow=none;html=1;rounded=0;" edge="1" parent="1">
          <mxGeometry width="50" height="50" relative="1" as="geometry">
            <mxPoint x="630" y="736.67" as="sourcePoint" />
            <mxPoint x="640" y="726.67" as="targetPoint" />
          </mxGeometry>
        </mxCell>
        <mxCell id="NnP0CMICDvvqzzj7FkAU-44" value="" style="endArrow=none;html=1;rounded=0;" edge="1" parent="1">
          <mxGeometry width="50" height="50" relative="1" as="geometry">
            <mxPoint x="630" y="719.67" as="sourcePoint" />
            <mxPoint x="640" y="710" as="targetPoint" />
          </mxGeometry>
        </mxCell>
        <mxCell id="NnP0CMICDvvqzzj7FkAU-45" value="" style="endArrow=none;html=1;rounded=0;" edge="1" parent="1">
          <mxGeometry width="50" height="50" relative="1" as="geometry">
            <mxPoint x="285" y="735" as="sourcePoint" />
            <mxPoint x="295" y="725" as="targetPoint" />
          </mxGeometry>
        </mxCell>
        <mxCell id="NnP0CMICDvvqzzj7FkAU-46" value="" style="endArrow=none;html=1;rounded=0;" edge="1" parent="1">
          <mxGeometry width="50" height="50" relative="1" as="geometry">
            <mxPoint x="285" y="719" as="sourcePoint" />
            <mxPoint x="295" y="709" as="targetPoint" />
          </mxGeometry>
        </mxCell>
        <mxCell id="NnP0CMICDvvqzzj7FkAU-47" value="" style="endArrow=none;html=1;rounded=0;" edge="1" parent="1">
          <mxGeometry width="50" height="50" relative="1" as="geometry">
            <mxPoint x="285" y="795" as="sourcePoint" />
            <mxPoint x="295" y="785" as="targetPoint" />
          </mxGeometry>
        </mxCell>
        <mxCell id="NnP0CMICDvvqzzj7FkAU-48" value="" style="endArrow=none;html=1;rounded=0;" edge="1" parent="1">
          <mxGeometry width="50" height="50" relative="1" as="geometry">
            <mxPoint x="285" y="810" as="sourcePoint" />
            <mxPoint x="295" y="800" as="targetPoint" />
          </mxGeometry>
        </mxCell>
        <mxCell id="NnP0CMICDvvqzzj7FkAU-51" value="" style="rounded=0;whiteSpace=wrap;html=1;" vertex="1" parent="1">
          <mxGeometry x="372.5" y="905" width="151" height="216" as="geometry" />
        </mxCell>
        <mxCell id="NnP0CMICDvvqzzj7FkAU-49" value="AES_Encrypt_module" style="rounded=0;whiteSpace=wrap;html=1;" vertex="1" parent="1">
          <mxGeometry x="383" y="934" width="130" height="73" as="geometry" />
        </mxCell>
        <mxCell id="NnP0CMICDvvqzzj7FkAU-50" value="AES_Decrypt_module" style="rounded=0;whiteSpace=wrap;html=1;" vertex="1" parent="1">
          <mxGeometry x="383" y="1041" width="130" height="73" as="geometry" />
        </mxCell>
        <mxCell id="NnP0CMICDvvqzzj7FkAU-52" value="AES_top_module" style="text;html=1;strokeColor=none;fillColor=none;align=center;verticalAlign=middle;whiteSpace=wrap;rounded=0;" vertex="1" parent="1">
          <mxGeometry x="394" y="904" width="60" height="30" as="geometry" />
        </mxCell>
        <mxCell id="NnP0CMICDvvqzzj7FkAU-56" value="" style="shape=flexArrow;endArrow=classic;html=1;rounded=0;" edge="1" parent="1">
          <mxGeometry width="50" height="50" relative="1" as="geometry">
            <mxPoint x="290" y="960" as="sourcePoint" />
            <mxPoint x="370" y="960" as="targetPoint" />
          </mxGeometry>
        </mxCell>
        <mxCell id="NnP0CMICDvvqzzj7FkAU-57" value="" style="shape=flexArrow;endArrow=classic;html=1;rounded=0;" edge="1" parent="1">
          <mxGeometry width="50" height="50" relative="1" as="geometry">
            <mxPoint x="530" y="960" as="sourcePoint" />
            <mxPoint x="610" y="960" as="targetPoint" />
          </mxGeometry>
        </mxCell>
        <mxCell id="NnP0CMICDvvqzzj7FkAU-58" value="" style="shape=flexArrow;endArrow=classic;html=1;rounded=0;" edge="1" parent="1">
          <mxGeometry width="50" height="50" relative="1" as="geometry">
            <mxPoint x="290" y="1077.26" as="sourcePoint" />
            <mxPoint x="370" y="1077.26" as="targetPoint" />
          </mxGeometry>
        </mxCell>
        <mxCell id="NnP0CMICDvvqzzj7FkAU-59" value="" style="shape=flexArrow;endArrow=classic;html=1;rounded=0;" edge="1" parent="1">
          <mxGeometry width="50" height="50" relative="1" as="geometry">
            <mxPoint x="530" y="1077.26" as="sourcePoint" />
            <mxPoint x="610" y="1077.26" as="targetPoint" />
          </mxGeometry>
        </mxCell>
        <mxCell id="NnP0CMICDvvqzzj7FkAU-60" value="data_in" style="text;html=1;strokeColor=none;fillColor=none;align=center;verticalAlign=middle;whiteSpace=wrap;rounded=0;" vertex="1" parent="1">
          <mxGeometry x="291" y="1003" width="60" height="30" as="geometry" />
        </mxCell>
        <mxCell id="NnP0CMICDvvqzzj7FkAU-61" value="data_out" style="text;html=1;strokeColor=none;fillColor=none;align=center;verticalAlign=middle;whiteSpace=wrap;rounded=0;" vertex="1" parent="1">
          <mxGeometry x="534" y="1005" width="60" height="30" as="geometry" />
        </mxCell>
        <mxCell id="NnP0CMICDvvqzzj7FkAU-62" value="" style="rounded=0;whiteSpace=wrap;html=1;" vertex="1" parent="1">
          <mxGeometry x="970" y="713" width="270" height="131" as="geometry" />
        </mxCell>
        <mxCell id="NnP0CMICDvvqzzj7FkAU-63" value="" style="endArrow=classic;html=1;rounded=0;" edge="1" parent="1">
          <mxGeometry width="50" height="50" relative="1" as="geometry">
            <mxPoint x="920" y="783.5" as="sourcePoint" />
            <mxPoint x="970" y="783.5" as="targetPoint" />
          </mxGeometry>
        </mxCell>
        <mxCell id="NnP0CMICDvvqzzj7FkAU-64" value="" style="endArrow=classic;html=1;rounded=0;" edge="1" parent="1">
          <mxGeometry width="50" height="50" relative="1" as="geometry">
            <mxPoint x="920" y="799.5" as="sourcePoint" />
            <mxPoint x="970" y="799.5" as="targetPoint" />
          </mxGeometry>
        </mxCell>
        <mxCell id="NnP0CMICDvvqzzj7FkAU-65" value="cipher_key [127:0]" style="text;html=1;strokeColor=none;fillColor=none;align=left;verticalAlign=middle;whiteSpace=wrap;rounded=0;" vertex="1" parent="1">
          <mxGeometry x="971.5" y="789.5" width="121" height="20" as="geometry" />
        </mxCell>
        <mxCell id="NnP0CMICDvvqzzj7FkAU-66" value="" style="endArrow=classic;html=1;rounded=0;entryX=0;entryY=0.2;entryDx=0;entryDy=0;entryPerimeter=0;" edge="1" parent="1">
          <mxGeometry width="50" height="50" relative="1" as="geometry">
            <mxPoint x="830" y="817" as="sourcePoint" />
            <mxPoint x="970" y="816.5000000000001" as="targetPoint" />
          </mxGeometry>
        </mxCell>
        <mxCell id="NnP0CMICDvvqzzj7FkAU-67" value="cipher_new_en" style="text;html=1;strokeColor=none;fillColor=none;align=right;verticalAlign=middle;whiteSpace=wrap;rounded=0;" vertex="1" parent="1">
          <mxGeometry x="1036" y="805.5" width="20" height="20" as="geometry" />
        </mxCell>
        <mxCell id="NnP0CMICDvvqzzj7FkAU-68" value="plain_text [127:0]" style="text;html=1;strokeColor=none;fillColor=none;align=left;verticalAlign=middle;whiteSpace=wrap;rounded=0;" vertex="1" parent="1">
          <mxGeometry x="971.5" y="772.5" width="118.5" height="20" as="geometry" />
        </mxCell>
        <mxCell id="NnP0CMICDvvqzzj7FkAU-69" value="" style="endArrow=none;html=1;rounded=0;" edge="1" parent="1">
          <mxGeometry width="50" height="50" relative="1" as="geometry">
            <mxPoint x="935" y="805.5" as="sourcePoint" />
            <mxPoint x="945" y="795.5" as="targetPoint" />
          </mxGeometry>
        </mxCell>
        <mxCell id="NnP0CMICDvvqzzj7FkAU-70" value="" style="endArrow=none;html=1;rounded=0;" edge="1" parent="1">
          <mxGeometry width="50" height="50" relative="1" as="geometry">
            <mxPoint x="935" y="789.5" as="sourcePoint" />
            <mxPoint x="945" y="779.5" as="targetPoint" />
          </mxGeometry>
        </mxCell>
        <mxCell id="NnP0CMICDvvqzzj7FkAU-71" value="" style="endArrow=classic;html=1;rounded=0;" edge="1" parent="1">
          <mxGeometry width="50" height="50" relative="1" as="geometry">
            <mxPoint x="830" y="735" as="sourcePoint" />
            <mxPoint x="970" y="734.5" as="targetPoint" />
          </mxGeometry>
        </mxCell>
        <mxCell id="NnP0CMICDvvqzzj7FkAU-72" value="" style="endArrow=classic;html=1;rounded=0;" edge="1" parent="1">
          <mxGeometry width="50" height="50" relative="1" as="geometry">
            <mxPoint x="830" y="750" as="sourcePoint" />
            <mxPoint x="970" y="749.5" as="targetPoint" />
          </mxGeometry>
        </mxCell>
        <mxCell id="NnP0CMICDvvqzzj7FkAU-73" value="clk" style="text;html=1;strokeColor=none;fillColor=none;align=right;verticalAlign=middle;whiteSpace=wrap;rounded=0;" vertex="1" parent="1">
          <mxGeometry x="970" y="723.5" width="20" height="20" as="geometry" />
        </mxCell>
        <mxCell id="NnP0CMICDvvqzzj7FkAU-74" value="reset_n" style="text;html=1;strokeColor=none;fillColor=none;align=right;verticalAlign=middle;whiteSpace=wrap;rounded=0;" vertex="1" parent="1">
          <mxGeometry x="996" y="738.5" width="20" height="20" as="geometry" />
        </mxCell>
        <mxCell id="NnP0CMICDvvqzzj7FkAU-75" value="" style="endArrow=classic;html=1;rounded=0;entryX=0;entryY=0.2;entryDx=0;entryDy=0;entryPerimeter=0;" edge="1" parent="1">
          <mxGeometry width="50" height="50" relative="1" as="geometry">
            <mxPoint x="830" y="764" as="sourcePoint" />
            <mxPoint x="970" y="763.5000000000001" as="targetPoint" />
          </mxGeometry>
        </mxCell>
        <mxCell id="NnP0CMICDvvqzzj7FkAU-76" value="en" style="text;html=1;strokeColor=none;fillColor=none;align=right;verticalAlign=middle;whiteSpace=wrap;rounded=0;" vertex="1" parent="1">
          <mxGeometry x="970" y="752.5" width="20" height="20" as="geometry" />
        </mxCell>
        <mxCell id="NnP0CMICDvvqzzj7FkAU-77" value="&lt;div style=&quot;&quot;&gt;&lt;span style=&quot;background-color: initial;&quot;&gt;round_key_10_out&lt;/span&gt;&lt;/div&gt;&amp;nbsp;[127:0]" style="text;html=1;strokeColor=none;fillColor=none;align=center;verticalAlign=middle;whiteSpace=wrap;rounded=0;" vertex="1" parent="1">
          <mxGeometry x="1364.5" y="1081" width="110.5" height="20" as="geometry" />
        </mxCell>
        <mxCell id="NnP0CMICDvvqzzj7FkAU-78" value="cipher_ready" style="text;html=1;strokeColor=none;fillColor=none;align=right;verticalAlign=middle;whiteSpace=wrap;rounded=0;" vertex="1" parent="1">
          <mxGeometry x="1220" y="748.5" width="20" height="20" as="geometry" />
        </mxCell>
        <mxCell id="NnP0CMICDvvqzzj7FkAU-79" value="cipher_text [127:0]" style="text;html=1;strokeColor=none;fillColor=none;align=right;verticalAlign=middle;whiteSpace=wrap;rounded=0;" vertex="1" parent="1">
          <mxGeometry x="1130" y="728.5" width="106.5" height="20" as="geometry" />
        </mxCell>
        <mxCell id="NnP0CMICDvvqzzj7FkAU-80" value="" style="endArrow=classic;html=1;rounded=0;" edge="1" parent="1">
          <mxGeometry width="50" height="50" relative="1" as="geometry">
            <mxPoint x="1240" y="739.68" as="sourcePoint" />
            <mxPoint x="1290" y="739.68" as="targetPoint" />
          </mxGeometry>
        </mxCell>
        <mxCell id="NnP0CMICDvvqzzj7FkAU-82" value="" style="endArrow=classic;html=1;rounded=0;entryX=0;entryY=0.2;entryDx=0;entryDy=0;entryPerimeter=0;" edge="1" parent="1">
          <mxGeometry width="50" height="50" relative="1" as="geometry">
            <mxPoint x="1240" y="759.2099999999999" as="sourcePoint" />
            <mxPoint x="1290" y="759.21" as="targetPoint" />
          </mxGeometry>
        </mxCell>
        <mxCell id="NnP0CMICDvvqzzj7FkAU-84" value="" style="endArrow=none;html=1;rounded=0;" edge="1" parent="1">
          <mxGeometry width="50" height="50" relative="1" as="geometry">
            <mxPoint x="1261" y="744.42" as="sourcePoint" />
            <mxPoint x="1271" y="734.75" as="targetPoint" />
          </mxGeometry>
        </mxCell>
        <mxCell id="NnP0CMICDvvqzzj7FkAU-85" value="" style="rounded=0;whiteSpace=wrap;html=1;" vertex="1" parent="1">
          <mxGeometry x="938" y="1261" width="270" height="120" as="geometry" />
        </mxCell>
        <mxCell id="NnP0CMICDvvqzzj7FkAU-86" value="" style="endArrow=classic;html=1;rounded=0;" edge="1" parent="1">
          <mxGeometry width="50" height="50" relative="1" as="geometry">
            <mxPoint x="888" y="1331.5" as="sourcePoint" />
            <mxPoint x="938" y="1331.5" as="targetPoint" />
          </mxGeometry>
        </mxCell>
        <mxCell id="NnP0CMICDvvqzzj7FkAU-87" value="" style="endArrow=classic;html=1;rounded=0;" edge="1" parent="1">
          <mxGeometry width="50" height="50" relative="1" as="geometry">
            <mxPoint x="888" y="1347.5" as="sourcePoint" />
            <mxPoint x="938" y="1347.5" as="targetPoint" />
          </mxGeometry>
        </mxCell>
        <mxCell id="NnP0CMICDvvqzzj7FkAU-88" value="round_key_10 [127:0]" style="text;html=1;strokeColor=none;fillColor=none;align=left;verticalAlign=middle;whiteSpace=wrap;rounded=0;" vertex="1" parent="1">
          <mxGeometry x="939.5" y="1337.5" width="121" height="20" as="geometry" />
        </mxCell>
        <mxCell id="NnP0CMICDvvqzzj7FkAU-89" value="" style="endArrow=classic;html=1;rounded=0;entryX=0;entryY=0.2;entryDx=0;entryDy=0;entryPerimeter=0;" edge="1" parent="1">
          <mxGeometry width="50" height="50" relative="1" as="geometry">
            <mxPoint x="888" y="1364.5" as="sourcePoint" />
            <mxPoint x="938" y="1364.5" as="targetPoint" />
          </mxGeometry>
        </mxCell>
        <mxCell id="NnP0CMICDvvqzzj7FkAU-90" value="decipher_new_en" style="text;html=1;strokeColor=none;fillColor=none;align=right;verticalAlign=middle;whiteSpace=wrap;rounded=0;" vertex="1" parent="1">
          <mxGeometry x="1019" y="1353.5" width="20" height="20" as="geometry" />
        </mxCell>
        <mxCell id="NnP0CMICDvvqzzj7FkAU-91" value="cipher_text_in [127:0]" style="text;html=1;strokeColor=none;fillColor=none;align=left;verticalAlign=middle;whiteSpace=wrap;rounded=0;" vertex="1" parent="1">
          <mxGeometry x="939.5" y="1320.5" width="128.5" height="20" as="geometry" />
        </mxCell>
        <mxCell id="NnP0CMICDvvqzzj7FkAU-92" value="" style="endArrow=none;html=1;rounded=0;" edge="1" parent="1">
          <mxGeometry width="50" height="50" relative="1" as="geometry">
            <mxPoint x="903" y="1353.5" as="sourcePoint" />
            <mxPoint x="913" y="1343.5" as="targetPoint" />
          </mxGeometry>
        </mxCell>
        <mxCell id="NnP0CMICDvvqzzj7FkAU-93" value="" style="endArrow=none;html=1;rounded=0;" edge="1" parent="1">
          <mxGeometry width="50" height="50" relative="1" as="geometry">
            <mxPoint x="903" y="1337.5" as="sourcePoint" />
            <mxPoint x="913" y="1327.5" as="targetPoint" />
          </mxGeometry>
        </mxCell>
        <mxCell id="NnP0CMICDvvqzzj7FkAU-94" value="" style="endArrow=classic;html=1;rounded=0;" edge="1" parent="1">
          <mxGeometry width="50" height="50" relative="1" as="geometry">
            <mxPoint x="888" y="1282.5" as="sourcePoint" />
            <mxPoint x="938" y="1282.5" as="targetPoint" />
          </mxGeometry>
        </mxCell>
        <mxCell id="NnP0CMICDvvqzzj7FkAU-95" value="" style="endArrow=classic;html=1;rounded=0;" edge="1" parent="1">
          <mxGeometry width="50" height="50" relative="1" as="geometry">
            <mxPoint x="888" y="1297.5" as="sourcePoint" />
            <mxPoint x="938" y="1297.5" as="targetPoint" />
          </mxGeometry>
        </mxCell>
        <mxCell id="NnP0CMICDvvqzzj7FkAU-96" value="clk" style="text;html=1;strokeColor=none;fillColor=none;align=right;verticalAlign=middle;whiteSpace=wrap;rounded=0;" vertex="1" parent="1">
          <mxGeometry x="938" y="1271.5" width="20" height="20" as="geometry" />
        </mxCell>
        <mxCell id="NnP0CMICDvvqzzj7FkAU-97" value="reset_n" style="text;html=1;strokeColor=none;fillColor=none;align=right;verticalAlign=middle;whiteSpace=wrap;rounded=0;" vertex="1" parent="1">
          <mxGeometry x="964" y="1286.5" width="20" height="20" as="geometry" />
        </mxCell>
        <mxCell id="NnP0CMICDvvqzzj7FkAU-98" value="" style="endArrow=classic;html=1;rounded=0;entryX=0;entryY=0.2;entryDx=0;entryDy=0;entryPerimeter=0;" edge="1" parent="1">
          <mxGeometry width="50" height="50" relative="1" as="geometry">
            <mxPoint x="888" y="1311.5" as="sourcePoint" />
            <mxPoint x="938" y="1311.5" as="targetPoint" />
          </mxGeometry>
        </mxCell>
        <mxCell id="NnP0CMICDvvqzzj7FkAU-99" value="en" style="text;html=1;strokeColor=none;fillColor=none;align=right;verticalAlign=middle;whiteSpace=wrap;rounded=0;" vertex="1" parent="1">
          <mxGeometry x="938" y="1300.5" width="20" height="20" as="geometry" />
        </mxCell>
        <mxCell id="NnP0CMICDvvqzzj7FkAU-101" value="decipher_ready" style="text;html=1;strokeColor=none;fillColor=none;align=right;verticalAlign=middle;whiteSpace=wrap;rounded=0;" vertex="1" parent="1">
          <mxGeometry x="1187" y="1331" width="20" height="20" as="geometry" />
        </mxCell>
        <mxCell id="NnP0CMICDvvqzzj7FkAU-102" value="plain_text_out [127:0]" style="text;html=1;strokeColor=none;fillColor=none;align=right;verticalAlign=middle;whiteSpace=wrap;rounded=0;" vertex="1" parent="1">
          <mxGeometry x="1073.5" y="1311" width="133.5" height="20" as="geometry" />
        </mxCell>
        <mxCell id="NnP0CMICDvvqzzj7FkAU-103" value="" style="endArrow=classic;html=1;rounded=0;" edge="1" parent="1">
          <mxGeometry width="50" height="50" relative="1" as="geometry">
            <mxPoint x="1208" y="1321.1799999999998" as="sourcePoint" />
            <mxPoint x="1258" y="1321.1799999999998" as="targetPoint" />
          </mxGeometry>
        </mxCell>
        <mxCell id="NnP0CMICDvvqzzj7FkAU-105" value="" style="endArrow=classic;html=1;rounded=0;entryX=0;entryY=0.2;entryDx=0;entryDy=0;entryPerimeter=0;" edge="1" parent="1">
          <mxGeometry width="50" height="50" relative="1" as="geometry">
            <mxPoint x="1208" y="1342.1799999999998" as="sourcePoint" />
            <mxPoint x="1258" y="1342.18" as="targetPoint" />
          </mxGeometry>
        </mxCell>
        <mxCell id="NnP0CMICDvvqzzj7FkAU-107" value="" style="endArrow=none;html=1;rounded=0;" edge="1" parent="1">
          <mxGeometry width="50" height="50" relative="1" as="geometry">
            <mxPoint x="1228" y="1325.92" as="sourcePoint" />
            <mxPoint x="1238" y="1316.25" as="targetPoint" />
          </mxGeometry>
        </mxCell>
        <mxCell id="NnP0CMICDvvqzzj7FkAU-108" value="" style="rounded=0;whiteSpace=wrap;html=1;fillColor=default;" vertex="1" parent="1">
          <mxGeometry x="890" y="880" width="270" height="130" as="geometry" />
        </mxCell>
        <mxCell id="NnP0CMICDvvqzzj7FkAU-112" style="edgeStyle=orthogonalEdgeStyle;rounded=0;orthogonalLoop=1;jettySize=auto;html=1;exitX=1;exitY=0.5;exitDx=0;exitDy=0;endArrow=none;endFill=0;" edge="1" parent="1">
          <mxGeometry relative="1" as="geometry">
            <mxPoint x="1489" y="1092" as="targetPoint" />
            <mxPoint x="1363.5" y="1092" as="sourcePoint" />
          </mxGeometry>
        </mxCell>
        <mxCell id="NnP0CMICDvvqzzj7FkAU-113" style="edgeStyle=orthogonalEdgeStyle;rounded=0;orthogonalLoop=1;jettySize=auto;html=1;exitX=0;exitY=0.25;exitDx=0;exitDy=0;endArrow=none;endFill=0;" edge="1" parent="1" source="NnP0CMICDvvqzzj7FkAU-110">
          <mxGeometry relative="1" as="geometry">
            <mxPoint x="1287" y="1089" as="targetPoint" />
          </mxGeometry>
        </mxCell>
        <mxCell id="NnP0CMICDvvqzzj7FkAU-110" value="" style="rounded=0;whiteSpace=wrap;html=1;" vertex="1" parent="1">
          <mxGeometry x="1313.5" y="1074" width="50" height="60" as="geometry" />
        </mxCell>
        <mxCell id="NnP0CMICDvvqzzj7FkAU-111" value="" style="triangle;whiteSpace=wrap;html=1;" vertex="1" parent="1">
          <mxGeometry x="1313.5" y="1111" width="10" height="11" as="geometry" />
        </mxCell>
        <mxCell id="NnP0CMICDvvqzzj7FkAU-114" value="" style="shape=trapezoid;perimeter=trapezoidPerimeter;whiteSpace=wrap;html=1;fixedSize=1;direction=south;" vertex="1" parent="1">
          <mxGeometry x="1250" y="1060" width="36.75" height="61" as="geometry" />
        </mxCell>
        <mxCell id="NnP0CMICDvvqzzj7FkAU-116" value="" style="ellipse;whiteSpace=wrap;html=1;aspect=fixed;" vertex="1" parent="1">
          <mxGeometry x="1336.5" y="1069" width="5" height="5" as="geometry" />
        </mxCell>
        <mxCell id="NnP0CMICDvvqzzj7FkAU-117" value="" style="endArrow=none;html=1;rounded=0;exitX=0.5;exitY=0;exitDx=0;exitDy=0;" edge="1" parent="1" source="NnP0CMICDvvqzzj7FkAU-116">
          <mxGeometry width="50" height="50" relative="1" as="geometry">
            <mxPoint x="1319" y="1100" as="sourcePoint" />
            <mxPoint x="1339" y="1060" as="targetPoint" />
          </mxGeometry>
        </mxCell>
        <mxCell id="NnP0CMICDvvqzzj7FkAU-118" value="1" style="text;html=1;strokeColor=none;fillColor=none;align=center;verticalAlign=middle;whiteSpace=wrap;rounded=0;" vertex="1" parent="1">
          <mxGeometry x="1252" y="1074" width="10" height="11" as="geometry" />
        </mxCell>
        <mxCell id="NnP0CMICDvvqzzj7FkAU-119" value="0" style="text;html=1;strokeColor=none;fillColor=none;align=center;verticalAlign=middle;whiteSpace=wrap;rounded=0;" vertex="1" parent="1">
          <mxGeometry x="1252" y="1095.5" width="10" height="9" as="geometry" />
        </mxCell>
        <mxCell id="NnP0CMICDvvqzzj7FkAU-120" value="round_key_en" style="text;html=1;strokeColor=none;fillColor=none;align=right;verticalAlign=middle;whiteSpace=wrap;rounded=0;" vertex="1" parent="1">
          <mxGeometry x="1220" y="768.5" width="20" height="20" as="geometry" />
        </mxCell>
        <mxCell id="NnP0CMICDvvqzzj7FkAU-121" value="round_num [3:0]" style="text;html=1;strokeColor=none;fillColor=none;align=right;verticalAlign=middle;whiteSpace=wrap;rounded=0;" vertex="1" parent="1">
          <mxGeometry x="1140" y="787.5" width="100" height="20" as="geometry" />
        </mxCell>
        <mxCell id="NnP0CMICDvvqzzj7FkAU-123" value="" style="endArrow=classic;html=1;rounded=0;entryX=0;entryY=0.2;entryDx=0;entryDy=0;entryPerimeter=0;" edge="1" parent="1">
          <mxGeometry width="50" height="50" relative="1" as="geometry">
            <mxPoint x="1240" y="779.3599999999999" as="sourcePoint" />
            <mxPoint x="1290" y="779.36" as="targetPoint" />
          </mxGeometry>
        </mxCell>
        <mxCell id="NnP0CMICDvvqzzj7FkAU-124" value="" style="endArrow=classic;html=1;rounded=0;entryX=0;entryY=0.2;entryDx=0;entryDy=0;entryPerimeter=0;" edge="1" parent="1">
          <mxGeometry width="50" height="50" relative="1" as="geometry">
            <mxPoint x="1240" y="797.3599999999999" as="sourcePoint" />
            <mxPoint x="1290" y="797.36" as="targetPoint" />
          </mxGeometry>
        </mxCell>
        <mxCell id="NnP0CMICDvvqzzj7FkAU-125" value="" style="endArrow=none;html=1;rounded=0;" edge="1" parent="1">
          <mxGeometry width="50" height="50" relative="1" as="geometry">
            <mxPoint x="1260" y="802.17" as="sourcePoint" />
            <mxPoint x="1270" y="792.5" as="targetPoint" />
          </mxGeometry>
        </mxCell>
        <mxCell id="NnP0CMICDvvqzzj7FkAU-126" value="= 10" style="ellipse;whiteSpace=wrap;html=1;aspect=fixed;" vertex="1" parent="1">
          <mxGeometry x="1257.38" y="1010" width="30" height="30" as="geometry" />
        </mxCell>
        <mxCell id="NnP0CMICDvvqzzj7FkAU-127" value="" style="endArrow=none;html=1;rounded=0;" edge="1" parent="1">
          <mxGeometry width="50" height="50" relative="1" as="geometry">
            <mxPoint x="1273" y="1010" as="sourcePoint" />
            <mxPoint x="1273" y="797" as="targetPoint" />
          </mxGeometry>
        </mxCell>
        <mxCell id="NnP0CMICDvvqzzj7FkAU-128" style="edgeStyle=orthogonalEdgeStyle;rounded=0;orthogonalLoop=1;jettySize=auto;html=1;exitX=0.5;exitY=1;exitDx=0;exitDy=0;entryX=0.197;entryY=0.38;entryDx=0;entryDy=0;entryPerimeter=0;" edge="1" parent="1" source="NnP0CMICDvvqzzj7FkAU-126" target="NnP0CMICDvvqzzj7FkAU-114">
          <mxGeometry relative="1" as="geometry" />
        </mxCell>
        <mxCell id="NnP0CMICDvvqzzj7FkAU-129" value="" style="endArrow=none;html=1;rounded=0;" edge="1" parent="1">
          <mxGeometry width="50" height="50" relative="1" as="geometry">
            <mxPoint x="1390" y="1150" as="sourcePoint" />
            <mxPoint x="1390" y="1092" as="targetPoint" />
          </mxGeometry>
        </mxCell>
        <mxCell id="NnP0CMICDvvqzzj7FkAU-130" value="" style="endArrow=none;html=1;rounded=0;" edge="1" parent="1">
          <mxGeometry width="50" height="50" relative="1" as="geometry">
            <mxPoint x="1200" y="1150" as="sourcePoint" />
            <mxPoint x="1390" y="1150" as="targetPoint" />
          </mxGeometry>
        </mxCell>
        <mxCell id="NnP0CMICDvvqzzj7FkAU-134" value="" style="endArrow=none;html=1;rounded=0;" edge="1" parent="1">
          <mxGeometry width="50" height="50" relative="1" as="geometry">
            <mxPoint x="1199.85" y="1150" as="sourcePoint" />
            <mxPoint x="1199.85" y="1100" as="targetPoint" />
          </mxGeometry>
        </mxCell>
        <mxCell id="NnP0CMICDvvqzzj7FkAU-135" value="" style="endArrow=classic;html=1;rounded=0;entryX=0.65;entryY=1.009;entryDx=0;entryDy=0;entryPerimeter=0;endFill=1;" edge="1" parent="1" target="NnP0CMICDvvqzzj7FkAU-114">
          <mxGeometry width="50" height="50" relative="1" as="geometry">
            <mxPoint x="1200" y="1100" as="sourcePoint" />
            <mxPoint x="1240" y="1100" as="targetPoint" />
          </mxGeometry>
        </mxCell>
        <mxCell id="NnP0CMICDvvqzzj7FkAU-136" value="round_num [3:0]" style="text;html=1;strokeColor=none;fillColor=none;align=left;verticalAlign=middle;whiteSpace=wrap;rounded=0;" vertex="1" parent="1">
          <mxGeometry x="895" y="947" width="121" height="20" as="geometry" />
        </mxCell>
        <mxCell id="NnP0CMICDvvqzzj7FkAU-137" value="cipher_new_en" style="text;html=1;strokeColor=none;fillColor=none;align=right;verticalAlign=middle;whiteSpace=wrap;rounded=0;" vertex="1" parent="1">
          <mxGeometry x="959.5" y="965" width="20" height="20" as="geometry" />
        </mxCell>
        <mxCell id="NnP0CMICDvvqzzj7FkAU-138" value="cipher_key [127:0]" style="text;html=1;strokeColor=none;fillColor=none;align=left;verticalAlign=middle;whiteSpace=wrap;rounded=0;" vertex="1" parent="1">
          <mxGeometry x="895" y="930" width="118.5" height="20" as="geometry" />
        </mxCell>
        <mxCell id="NnP0CMICDvvqzzj7FkAU-139" value="clk" style="text;html=1;strokeColor=none;fillColor=none;align=right;verticalAlign=middle;whiteSpace=wrap;rounded=0;" vertex="1" parent="1">
          <mxGeometry x="893.5" y="881" width="20" height="20" as="geometry" />
        </mxCell>
        <mxCell id="NnP0CMICDvvqzzj7FkAU-140" value="reset_n" style="text;html=1;strokeColor=none;fillColor=none;align=right;verticalAlign=middle;whiteSpace=wrap;rounded=0;" vertex="1" parent="1">
          <mxGeometry x="919.5" y="896" width="20" height="20" as="geometry" />
        </mxCell>
        <mxCell id="NnP0CMICDvvqzzj7FkAU-141" value="en" style="text;html=1;strokeColor=none;fillColor=none;align=right;verticalAlign=middle;whiteSpace=wrap;rounded=0;" vertex="1" parent="1">
          <mxGeometry x="893.5" y="910" width="20" height="20" as="geometry" />
        </mxCell>
        <mxCell id="NnP0CMICDvvqzzj7FkAU-142" value="round_key_en" style="text;html=1;strokeColor=none;fillColor=none;align=right;verticalAlign=middle;whiteSpace=wrap;rounded=0;" vertex="1" parent="1">
          <mxGeometry x="954.5" y="982" width="20" height="20" as="geometry" />
        </mxCell>
        <mxCell id="NnP0CMICDvvqzzj7FkAU-144" value="round_key [127:0]" style="text;html=1;strokeColor=none;fillColor=none;align=left;verticalAlign=middle;whiteSpace=wrap;rounded=0;" vertex="1" parent="1">
          <mxGeometry x="1055" y="935" width="100" height="20" as="geometry" />
        </mxCell>
        <mxCell id="NnP0CMICDvvqzzj7FkAU-145" value="" style="endArrow=none;html=1;rounded=0;" edge="1" parent="1">
          <mxGeometry width="50" height="50" relative="1" as="geometry">
            <mxPoint x="1160" y="945" as="sourcePoint" />
            <mxPoint x="1200" y="945" as="targetPoint" />
          </mxGeometry>
        </mxCell>
        <mxCell id="NnP0CMICDvvqzzj7FkAU-146" value="" style="endArrow=none;html=1;rounded=0;" edge="1" parent="1">
          <mxGeometry width="50" height="50" relative="1" as="geometry">
            <mxPoint x="1200" y="1080" as="sourcePoint" />
            <mxPoint x="1200" y="945" as="targetPoint" />
          </mxGeometry>
        </mxCell>
        <mxCell id="NnP0CMICDvvqzzj7FkAU-147" value="" style="endArrow=classic;html=1;rounded=0;entryX=0.326;entryY=1;entryDx=0;entryDy=0;entryPerimeter=0;endFill=1;" edge="1" parent="1" target="NnP0CMICDvvqzzj7FkAU-114">
          <mxGeometry width="50" height="50" relative="1" as="geometry">
            <mxPoint x="1200" y="1080" as="sourcePoint" />
            <mxPoint x="1180" y="1030" as="targetPoint" />
          </mxGeometry>
        </mxCell>
        <mxCell id="NnP0CMICDvvqzzj7FkAU-148" value="reset_n" style="text;html=1;strokeColor=none;fillColor=none;align=center;verticalAlign=middle;whiteSpace=wrap;rounded=0;" vertex="1" parent="1">
          <mxGeometry x="1336.5" y="1043" width="36.5" height="17" as="geometry" />
        </mxCell>
        <mxCell id="NnP0CMICDvvqzzj7FkAU-149" value="" style="endArrow=none;html=1;rounded=0;" edge="1" parent="1">
          <mxGeometry width="50" height="50" relative="1" as="geometry">
            <mxPoint x="870" y="890" as="sourcePoint" />
            <mxPoint x="870" y="735" as="targetPoint" />
          </mxGeometry>
        </mxCell>
        <mxCell id="NnP0CMICDvvqzzj7FkAU-150" value="" style="endArrow=classic;html=1;rounded=0;entryX=0;entryY=0.074;entryDx=0;entryDy=0;entryPerimeter=0;endFill=1;" edge="1" parent="1" target="NnP0CMICDvvqzzj7FkAU-108">
          <mxGeometry width="50" height="50" relative="1" as="geometry">
            <mxPoint x="870" y="890" as="sourcePoint" />
            <mxPoint x="910" y="840" as="targetPoint" />
          </mxGeometry>
        </mxCell>
        <mxCell id="NnP0CMICDvvqzzj7FkAU-151" value="" style="endArrow=none;html=1;rounded=0;" edge="1" parent="1">
          <mxGeometry width="50" height="50" relative="1" as="geometry">
            <mxPoint x="860" y="907" as="sourcePoint" />
            <mxPoint x="860" y="750" as="targetPoint" />
          </mxGeometry>
        </mxCell>
        <mxCell id="NnP0CMICDvvqzzj7FkAU-152" value="" style="endArrow=none;html=1;rounded=0;" edge="1" parent="1">
          <mxGeometry width="50" height="50" relative="1" as="geometry">
            <mxPoint x="850" y="921" as="sourcePoint" />
            <mxPoint x="850" y="764" as="targetPoint" />
          </mxGeometry>
        </mxCell>
        <mxCell id="NnP0CMICDvvqzzj7FkAU-153" value="" style="endArrow=classic;html=1;rounded=0;entryX=-0.003;entryY=0.304;entryDx=0;entryDy=0;entryPerimeter=0;endFill=1;" edge="1" parent="1">
          <mxGeometry width="50" height="50" relative="1" as="geometry">
            <mxPoint x="850" y="921" as="sourcePoint" />
            <mxPoint x="889.19" y="920.52" as="targetPoint" />
          </mxGeometry>
        </mxCell>
        <mxCell id="NnP0CMICDvvqzzj7FkAU-154" value="" style="endArrow=classic;html=1;rounded=0;entryX=-0.003;entryY=0.304;entryDx=0;entryDy=0;entryPerimeter=0;endFill=1;" edge="1" parent="1">
          <mxGeometry width="50" height="50" relative="1" as="geometry">
            <mxPoint x="860" y="907" as="sourcePoint" />
            <mxPoint x="890" y="907" as="targetPoint" />
          </mxGeometry>
        </mxCell>
        <mxCell id="NnP0CMICDvvqzzj7FkAU-155" value="" style="endArrow=classic;html=1;rounded=0;entryX=0;entryY=0.2;entryDx=0;entryDy=0;entryPerimeter=0;" edge="1" parent="1">
          <mxGeometry width="50" height="50" relative="1" as="geometry">
            <mxPoint x="850" y="991.6999999999999" as="sourcePoint" />
            <mxPoint x="890" y="991" as="targetPoint" />
          </mxGeometry>
        </mxCell>
        <mxCell id="NnP0CMICDvvqzzj7FkAU-156" value="" style="endArrow=none;html=1;rounded=0;" edge="1" parent="1">
          <mxGeometry width="50" height="50" relative="1" as="geometry">
            <mxPoint x="840" y="977" as="sourcePoint" />
            <mxPoint x="840" y="817" as="targetPoint" />
          </mxGeometry>
        </mxCell>
        <mxCell id="NnP0CMICDvvqzzj7FkAU-157" value="" style="endArrow=classic;html=1;rounded=0;entryX=-0.003;entryY=0.727;entryDx=0;entryDy=0;entryPerimeter=0;endFill=1;" edge="1" parent="1">
          <mxGeometry width="50" height="50" relative="1" as="geometry">
            <mxPoint x="840" y="977.24" as="sourcePoint" />
            <mxPoint x="889.19" y="977" as="targetPoint" />
          </mxGeometry>
        </mxCell>
        <mxCell id="NnP0CMICDvvqzzj7FkAU-158" value="" style="endArrow=classic;html=1;rounded=0;entryX=0;entryY=0.2;entryDx=0;entryDy=0;entryPerimeter=0;" edge="1" parent="1">
          <mxGeometry width="50" height="50" relative="1" as="geometry">
            <mxPoint x="850" y="957.3499999999999" as="sourcePoint" />
            <mxPoint x="890" y="956.65" as="targetPoint" />
          </mxGeometry>
        </mxCell>
        <mxCell id="NnP0CMICDvvqzzj7FkAU-159" value="" style="endArrow=classic;html=1;rounded=0;entryX=0;entryY=0.2;entryDx=0;entryDy=0;entryPerimeter=0;" edge="1" parent="1">
          <mxGeometry width="50" height="50" relative="1" as="geometry">
            <mxPoint x="850" y="940.3499999999999" as="sourcePoint" />
            <mxPoint x="890" y="939.65" as="targetPoint" />
          </mxGeometry>
        </mxCell>
        <mxCell id="NnP0CMICDvvqzzj7FkAU-161" value="" style="endArrow=none;html=1;rounded=0;" edge="1" parent="1">
          <mxGeometry width="50" height="50" relative="1" as="geometry">
            <mxPoint x="801" y="729.67" as="sourcePoint" />
            <mxPoint x="820.5" y="729.67" as="targetPoint" />
          </mxGeometry>
        </mxCell>
        <mxCell id="NnP0CMICDvvqzzj7FkAU-162" value="" style="endArrow=none;html=1;rounded=0;" edge="1" parent="1">
          <mxGeometry width="50" height="50" relative="1" as="geometry">
            <mxPoint x="801" y="739.67" as="sourcePoint" />
            <mxPoint x="821" y="739.67" as="targetPoint" />
            <Array as="points">
              <mxPoint x="801" y="739.67" />
            </Array>
          </mxGeometry>
        </mxCell>
        <mxCell id="NnP0CMICDvvqzzj7FkAU-163" value="" style="endArrow=none;html=1;rounded=0;" edge="1" parent="1">
          <mxGeometry width="50" height="50" relative="1" as="geometry">
            <mxPoint x="801.5" y="739.67" as="sourcePoint" />
            <mxPoint x="801.5" y="729.67" as="targetPoint" />
          </mxGeometry>
        </mxCell>
        <mxCell id="NnP0CMICDvvqzzj7FkAU-164" value="" style="endArrow=none;html=1;rounded=0;" edge="1" parent="1">
          <mxGeometry width="50" height="50" relative="1" as="geometry">
            <mxPoint x="820.5" y="729.67" as="sourcePoint" />
            <mxPoint x="830.5" y="734.67" as="targetPoint" />
          </mxGeometry>
        </mxCell>
        <mxCell id="NnP0CMICDvvqzzj7FkAU-165" value="" style="endArrow=none;html=1;rounded=0;" edge="1" parent="1">
          <mxGeometry width="50" height="50" relative="1" as="geometry">
            <mxPoint x="820.5" y="739.67" as="sourcePoint" />
            <mxPoint x="830.5" y="734.67" as="targetPoint" />
          </mxGeometry>
        </mxCell>
        <mxCell id="NnP0CMICDvvqzzj7FkAU-166" value="" style="endArrow=none;html=1;rounded=0;" edge="1" parent="1">
          <mxGeometry width="50" height="50" relative="1" as="geometry">
            <mxPoint x="801" y="744.67" as="sourcePoint" />
            <mxPoint x="820.5" y="744.67" as="targetPoint" />
          </mxGeometry>
        </mxCell>
        <mxCell id="NnP0CMICDvvqzzj7FkAU-167" value="" style="endArrow=none;html=1;rounded=0;" edge="1" parent="1">
          <mxGeometry width="50" height="50" relative="1" as="geometry">
            <mxPoint x="801" y="754.67" as="sourcePoint" />
            <mxPoint x="821" y="754.67" as="targetPoint" />
            <Array as="points">
              <mxPoint x="801" y="754.67" />
            </Array>
          </mxGeometry>
        </mxCell>
        <mxCell id="NnP0CMICDvvqzzj7FkAU-168" value="" style="endArrow=none;html=1;rounded=0;" edge="1" parent="1">
          <mxGeometry width="50" height="50" relative="1" as="geometry">
            <mxPoint x="801.5" y="754.67" as="sourcePoint" />
            <mxPoint x="801.5" y="744.67" as="targetPoint" />
          </mxGeometry>
        </mxCell>
        <mxCell id="NnP0CMICDvvqzzj7FkAU-169" value="" style="endArrow=none;html=1;rounded=0;" edge="1" parent="1">
          <mxGeometry width="50" height="50" relative="1" as="geometry">
            <mxPoint x="820.5" y="744.67" as="sourcePoint" />
            <mxPoint x="830.5" y="749.67" as="targetPoint" />
          </mxGeometry>
        </mxCell>
        <mxCell id="NnP0CMICDvvqzzj7FkAU-170" value="" style="endArrow=none;html=1;rounded=0;" edge="1" parent="1">
          <mxGeometry width="50" height="50" relative="1" as="geometry">
            <mxPoint x="820.5" y="754.67" as="sourcePoint" />
            <mxPoint x="830.5" y="749.67" as="targetPoint" />
          </mxGeometry>
        </mxCell>
        <mxCell id="NnP0CMICDvvqzzj7FkAU-171" value="" style="endArrow=none;html=1;rounded=0;" edge="1" parent="1">
          <mxGeometry width="50" height="50" relative="1" as="geometry">
            <mxPoint x="801" y="758.5" as="sourcePoint" />
            <mxPoint x="820.5" y="758.5" as="targetPoint" />
          </mxGeometry>
        </mxCell>
        <mxCell id="NnP0CMICDvvqzzj7FkAU-172" value="" style="endArrow=none;html=1;rounded=0;" edge="1" parent="1">
          <mxGeometry width="50" height="50" relative="1" as="geometry">
            <mxPoint x="801" y="768.5" as="sourcePoint" />
            <mxPoint x="821" y="768.5" as="targetPoint" />
            <Array as="points">
              <mxPoint x="801" y="768.5" />
            </Array>
          </mxGeometry>
        </mxCell>
        <mxCell id="NnP0CMICDvvqzzj7FkAU-173" value="" style="endArrow=none;html=1;rounded=0;" edge="1" parent="1">
          <mxGeometry width="50" height="50" relative="1" as="geometry">
            <mxPoint x="801.5" y="768.5" as="sourcePoint" />
            <mxPoint x="801.5" y="758.5" as="targetPoint" />
          </mxGeometry>
        </mxCell>
        <mxCell id="NnP0CMICDvvqzzj7FkAU-174" value="" style="endArrow=none;html=1;rounded=0;" edge="1" parent="1">
          <mxGeometry width="50" height="50" relative="1" as="geometry">
            <mxPoint x="820.5" y="758.5" as="sourcePoint" />
            <mxPoint x="830.5" y="763.5" as="targetPoint" />
          </mxGeometry>
        </mxCell>
        <mxCell id="NnP0CMICDvvqzzj7FkAU-175" value="" style="endArrow=none;html=1;rounded=0;" edge="1" parent="1">
          <mxGeometry width="50" height="50" relative="1" as="geometry">
            <mxPoint x="820.5" y="768.5" as="sourcePoint" />
            <mxPoint x="830.5" y="763.5" as="targetPoint" />
          </mxGeometry>
        </mxCell>
        <mxCell id="NnP0CMICDvvqzzj7FkAU-176" value="" style="endArrow=none;html=1;rounded=0;" edge="1" parent="1">
          <mxGeometry width="50" height="50" relative="1" as="geometry">
            <mxPoint x="891" y="778.3299999999999" as="sourcePoint" />
            <mxPoint x="910.5" y="778.3299999999999" as="targetPoint" />
          </mxGeometry>
        </mxCell>
        <mxCell id="NnP0CMICDvvqzzj7FkAU-177" value="" style="endArrow=none;html=1;rounded=0;" edge="1" parent="1">
          <mxGeometry width="50" height="50" relative="1" as="geometry">
            <mxPoint x="891" y="788.3299999999999" as="sourcePoint" />
            <mxPoint x="911" y="788.3299999999999" as="targetPoint" />
            <Array as="points">
              <mxPoint x="891" y="788.3299999999999" />
            </Array>
          </mxGeometry>
        </mxCell>
        <mxCell id="NnP0CMICDvvqzzj7FkAU-178" value="" style="endArrow=none;html=1;rounded=0;" edge="1" parent="1">
          <mxGeometry width="50" height="50" relative="1" as="geometry">
            <mxPoint x="891.5" y="788.3299999999999" as="sourcePoint" />
            <mxPoint x="891.5" y="778.3299999999999" as="targetPoint" />
          </mxGeometry>
        </mxCell>
        <mxCell id="NnP0CMICDvvqzzj7FkAU-179" value="" style="endArrow=none;html=1;rounded=0;" edge="1" parent="1">
          <mxGeometry width="50" height="50" relative="1" as="geometry">
            <mxPoint x="910.5" y="778.3299999999999" as="sourcePoint" />
            <mxPoint x="920.5" y="783.3299999999999" as="targetPoint" />
          </mxGeometry>
        </mxCell>
        <mxCell id="NnP0CMICDvvqzzj7FkAU-180" value="" style="endArrow=none;html=1;rounded=0;" edge="1" parent="1">
          <mxGeometry width="50" height="50" relative="1" as="geometry">
            <mxPoint x="910.5" y="788.3299999999999" as="sourcePoint" />
            <mxPoint x="920.5" y="783.3299999999999" as="targetPoint" />
          </mxGeometry>
        </mxCell>
        <mxCell id="NnP0CMICDvvqzzj7FkAU-181" value="" style="endArrow=none;html=1;rounded=0;" edge="1" parent="1">
          <mxGeometry width="50" height="50" relative="1" as="geometry">
            <mxPoint x="891" y="794.17" as="sourcePoint" />
            <mxPoint x="910.5" y="794.17" as="targetPoint" />
          </mxGeometry>
        </mxCell>
        <mxCell id="NnP0CMICDvvqzzj7FkAU-182" value="" style="endArrow=none;html=1;rounded=0;" edge="1" parent="1">
          <mxGeometry width="50" height="50" relative="1" as="geometry">
            <mxPoint x="891" y="804.17" as="sourcePoint" />
            <mxPoint x="911" y="804.17" as="targetPoint" />
            <Array as="points">
              <mxPoint x="891" y="804.17" />
            </Array>
          </mxGeometry>
        </mxCell>
        <mxCell id="NnP0CMICDvvqzzj7FkAU-183" value="" style="endArrow=none;html=1;rounded=0;" edge="1" parent="1">
          <mxGeometry width="50" height="50" relative="1" as="geometry">
            <mxPoint x="891.5" y="804.17" as="sourcePoint" />
            <mxPoint x="891.5" y="794.17" as="targetPoint" />
          </mxGeometry>
        </mxCell>
        <mxCell id="NnP0CMICDvvqzzj7FkAU-184" value="" style="endArrow=none;html=1;rounded=0;" edge="1" parent="1">
          <mxGeometry width="50" height="50" relative="1" as="geometry">
            <mxPoint x="910.5" y="794.17" as="sourcePoint" />
            <mxPoint x="920.5" y="799.17" as="targetPoint" />
          </mxGeometry>
        </mxCell>
        <mxCell id="NnP0CMICDvvqzzj7FkAU-185" value="" style="endArrow=none;html=1;rounded=0;" edge="1" parent="1">
          <mxGeometry width="50" height="50" relative="1" as="geometry">
            <mxPoint x="910.5" y="804.17" as="sourcePoint" />
            <mxPoint x="920.5" y="799.17" as="targetPoint" />
          </mxGeometry>
        </mxCell>
        <mxCell id="NnP0CMICDvvqzzj7FkAU-188" value="" style="endArrow=none;html=1;rounded=0;" edge="1" parent="1">
          <mxGeometry width="50" height="50" relative="1" as="geometry">
            <mxPoint x="801" y="812.3299999999999" as="sourcePoint" />
            <mxPoint x="820.5" y="812.3299999999999" as="targetPoint" />
          </mxGeometry>
        </mxCell>
        <mxCell id="NnP0CMICDvvqzzj7FkAU-189" value="" style="endArrow=none;html=1;rounded=0;" edge="1" parent="1">
          <mxGeometry width="50" height="50" relative="1" as="geometry">
            <mxPoint x="801" y="822.3299999999999" as="sourcePoint" />
            <mxPoint x="821" y="822.3299999999999" as="targetPoint" />
            <Array as="points">
              <mxPoint x="801" y="822.3299999999999" />
            </Array>
          </mxGeometry>
        </mxCell>
        <mxCell id="NnP0CMICDvvqzzj7FkAU-190" value="" style="endArrow=none;html=1;rounded=0;" edge="1" parent="1">
          <mxGeometry width="50" height="50" relative="1" as="geometry">
            <mxPoint x="801.5" y="822.3299999999999" as="sourcePoint" />
            <mxPoint x="801.5" y="812.3299999999999" as="targetPoint" />
          </mxGeometry>
        </mxCell>
        <mxCell id="NnP0CMICDvvqzzj7FkAU-191" value="" style="endArrow=none;html=1;rounded=0;" edge="1" parent="1">
          <mxGeometry width="50" height="50" relative="1" as="geometry">
            <mxPoint x="820.5" y="812.3299999999999" as="sourcePoint" />
            <mxPoint x="830.5" y="817.3299999999999" as="targetPoint" />
          </mxGeometry>
        </mxCell>
        <mxCell id="NnP0CMICDvvqzzj7FkAU-192" value="" style="endArrow=none;html=1;rounded=0;" edge="1" parent="1">
          <mxGeometry width="50" height="50" relative="1" as="geometry">
            <mxPoint x="820.5" y="822.3299999999999" as="sourcePoint" />
            <mxPoint x="830.5" y="817.3299999999999" as="targetPoint" />
          </mxGeometry>
        </mxCell>
        <mxCell id="NnP0CMICDvvqzzj7FkAU-193" value="" style="endArrow=none;html=1;rounded=0;" edge="1" parent="1">
          <mxGeometry width="50" height="50" relative="1" as="geometry">
            <mxPoint x="1489" y="1086.83" as="sourcePoint" />
            <mxPoint x="1508.5" y="1086.83" as="targetPoint" />
          </mxGeometry>
        </mxCell>
        <mxCell id="NnP0CMICDvvqzzj7FkAU-194" value="" style="endArrow=none;html=1;rounded=0;" edge="1" parent="1">
          <mxGeometry width="50" height="50" relative="1" as="geometry">
            <mxPoint x="1489" y="1096.83" as="sourcePoint" />
            <mxPoint x="1509" y="1096.83" as="targetPoint" />
            <Array as="points">
              <mxPoint x="1489" y="1096.83" />
            </Array>
          </mxGeometry>
        </mxCell>
        <mxCell id="NnP0CMICDvvqzzj7FkAU-195" value="" style="endArrow=none;html=1;rounded=0;" edge="1" parent="1">
          <mxGeometry width="50" height="50" relative="1" as="geometry">
            <mxPoint x="1489.5" y="1096.83" as="sourcePoint" />
            <mxPoint x="1489.5" y="1086.83" as="targetPoint" />
          </mxGeometry>
        </mxCell>
        <mxCell id="NnP0CMICDvvqzzj7FkAU-196" value="" style="endArrow=none;html=1;rounded=0;" edge="1" parent="1">
          <mxGeometry width="50" height="50" relative="1" as="geometry">
            <mxPoint x="1508.5" y="1086.83" as="sourcePoint" />
            <mxPoint x="1518.5" y="1091.83" as="targetPoint" />
          </mxGeometry>
        </mxCell>
        <mxCell id="NnP0CMICDvvqzzj7FkAU-197" value="" style="endArrow=none;html=1;rounded=0;" edge="1" parent="1">
          <mxGeometry width="50" height="50" relative="1" as="geometry">
            <mxPoint x="1508.5" y="1096.83" as="sourcePoint" />
            <mxPoint x="1518.5" y="1091.83" as="targetPoint" />
          </mxGeometry>
        </mxCell>
        <mxCell id="NnP0CMICDvvqzzj7FkAU-198" value="round_key [127:0]" style="text;html=1;strokeColor=none;fillColor=none;align=left;verticalAlign=middle;whiteSpace=wrap;rounded=0;" vertex="1" parent="1">
          <mxGeometry x="971.5" y="823" width="100" height="20" as="geometry" />
        </mxCell>
        <mxCell id="NnP0CMICDvvqzzj7FkAU-199" value="" style="endArrow=classic;html=1;rounded=0;entryX=0;entryY=0.2;entryDx=0;entryDy=0;entryPerimeter=0;" edge="1" parent="1">
          <mxGeometry width="50" height="50" relative="1" as="geometry">
            <mxPoint x="930" y="835.6999999999999" as="sourcePoint" />
            <mxPoint x="970" y="835" as="targetPoint" />
          </mxGeometry>
        </mxCell>
        <mxCell id="NnP0CMICDvvqzzj7FkAU-200" value="" style="endArrow=none;html=1;rounded=0;" edge="1" parent="1">
          <mxGeometry width="50" height="50" relative="1" as="geometry">
            <mxPoint x="934" y="840" as="sourcePoint" />
            <mxPoint x="944" y="830" as="targetPoint" />
          </mxGeometry>
        </mxCell>
        <mxCell id="NnP0CMICDvvqzzj7FkAU-201" value="" style="rounded=0;whiteSpace=wrap;html=1;" vertex="1" parent="1">
          <mxGeometry x="988" y="1402" width="270" height="131" as="geometry" />
        </mxCell>
        <mxCell id="NnP0CMICDvvqzzj7FkAU-202" value="" style="endArrow=classic;html=1;rounded=0;" edge="1" parent="1">
          <mxGeometry width="50" height="50" relative="1" as="geometry">
            <mxPoint x="938" y="1472.5" as="sourcePoint" />
            <mxPoint x="988" y="1472.5" as="targetPoint" />
          </mxGeometry>
        </mxCell>
        <mxCell id="NnP0CMICDvvqzzj7FkAU-203" value="" style="endArrow=classic;html=1;rounded=0;" edge="1" parent="1">
          <mxGeometry width="50" height="50" relative="1" as="geometry">
            <mxPoint x="938" y="1488.5" as="sourcePoint" />
            <mxPoint x="988" y="1488.5" as="targetPoint" />
          </mxGeometry>
        </mxCell>
        <mxCell id="NnP0CMICDvvqzzj7FkAU-204" value="round_key_10 [127:0]" style="text;html=1;strokeColor=none;fillColor=none;align=left;verticalAlign=middle;whiteSpace=wrap;rounded=0;" vertex="1" parent="1">
          <mxGeometry x="989.5" y="1478.5" width="121" height="20" as="geometry" />
        </mxCell>
        <mxCell id="NnP0CMICDvvqzzj7FkAU-205" value="" style="endArrow=classic;html=1;rounded=0;entryX=0;entryY=0.2;entryDx=0;entryDy=0;entryPerimeter=0;" edge="1" parent="1">
          <mxGeometry width="50" height="50" relative="1" as="geometry">
            <mxPoint x="848" y="1506" as="sourcePoint" />
            <mxPoint x="988" y="1505.5" as="targetPoint" />
          </mxGeometry>
        </mxCell>
        <mxCell id="NnP0CMICDvvqzzj7FkAU-206" value="decipher_new_en" style="text;html=1;strokeColor=none;fillColor=none;align=left;verticalAlign=middle;whiteSpace=wrap;rounded=0;" vertex="1" parent="1">
          <mxGeometry x="990" y="1494.5" width="20" height="20" as="geometry" />
        </mxCell>
        <mxCell id="NnP0CMICDvvqzzj7FkAU-207" value="cipher_text [127:0]" style="text;html=1;strokeColor=none;fillColor=none;align=left;verticalAlign=middle;whiteSpace=wrap;rounded=0;" vertex="1" parent="1">
          <mxGeometry x="989.5" y="1461.5" width="118.5" height="20" as="geometry" />
        </mxCell>
        <mxCell id="NnP0CMICDvvqzzj7FkAU-208" value="" style="endArrow=none;html=1;rounded=0;" edge="1" parent="1">
          <mxGeometry width="50" height="50" relative="1" as="geometry">
            <mxPoint x="953" y="1494.5" as="sourcePoint" />
            <mxPoint x="963" y="1484.5" as="targetPoint" />
          </mxGeometry>
        </mxCell>
        <mxCell id="NnP0CMICDvvqzzj7FkAU-209" value="" style="endArrow=none;html=1;rounded=0;" edge="1" parent="1">
          <mxGeometry width="50" height="50" relative="1" as="geometry">
            <mxPoint x="953" y="1478.5" as="sourcePoint" />
            <mxPoint x="963" y="1468.5" as="targetPoint" />
          </mxGeometry>
        </mxCell>
        <mxCell id="NnP0CMICDvvqzzj7FkAU-210" value="" style="endArrow=classic;html=1;rounded=0;" edge="1" parent="1">
          <mxGeometry width="50" height="50" relative="1" as="geometry">
            <mxPoint x="848" y="1424" as="sourcePoint" />
            <mxPoint x="988" y="1423.5" as="targetPoint" />
          </mxGeometry>
        </mxCell>
        <mxCell id="NnP0CMICDvvqzzj7FkAU-211" value="" style="endArrow=classic;html=1;rounded=0;" edge="1" parent="1">
          <mxGeometry width="50" height="50" relative="1" as="geometry">
            <mxPoint x="848" y="1439" as="sourcePoint" />
            <mxPoint x="988" y="1438.5" as="targetPoint" />
          </mxGeometry>
        </mxCell>
        <mxCell id="NnP0CMICDvvqzzj7FkAU-212" value="clk" style="text;html=1;strokeColor=none;fillColor=none;align=right;verticalAlign=middle;whiteSpace=wrap;rounded=0;" vertex="1" parent="1">
          <mxGeometry x="988" y="1412.5" width="20" height="20" as="geometry" />
        </mxCell>
        <mxCell id="NnP0CMICDvvqzzj7FkAU-213" value="reset_n" style="text;html=1;strokeColor=none;fillColor=none;align=right;verticalAlign=middle;whiteSpace=wrap;rounded=0;" vertex="1" parent="1">
          <mxGeometry x="1014" y="1427.5" width="20" height="20" as="geometry" />
        </mxCell>
        <mxCell id="NnP0CMICDvvqzzj7FkAU-214" value="" style="endArrow=classic;html=1;rounded=0;entryX=0;entryY=0.2;entryDx=0;entryDy=0;entryPerimeter=0;" edge="1" parent="1">
          <mxGeometry width="50" height="50" relative="1" as="geometry">
            <mxPoint x="848" y="1453" as="sourcePoint" />
            <mxPoint x="988" y="1452.5" as="targetPoint" />
          </mxGeometry>
        </mxCell>
        <mxCell id="NnP0CMICDvvqzzj7FkAU-215" value="en" style="text;html=1;strokeColor=none;fillColor=none;align=right;verticalAlign=middle;whiteSpace=wrap;rounded=0;" vertex="1" parent="1">
          <mxGeometry x="988" y="1441.5" width="20" height="20" as="geometry" />
        </mxCell>
        <mxCell id="NnP0CMICDvvqzzj7FkAU-217" value="decipher_ready" style="text;html=1;strokeColor=none;fillColor=none;align=right;verticalAlign=middle;whiteSpace=wrap;rounded=0;" vertex="1" parent="1">
          <mxGeometry x="1238" y="1437.5" width="20" height="20" as="geometry" />
        </mxCell>
        <mxCell id="NnP0CMICDvvqzzj7FkAU-218" value="plain_text [127:0]" style="text;html=1;strokeColor=none;fillColor=none;align=right;verticalAlign=middle;whiteSpace=wrap;rounded=0;" vertex="1" parent="1">
          <mxGeometry x="1148" y="1417.5" width="106.5" height="20" as="geometry" />
        </mxCell>
        <mxCell id="NnP0CMICDvvqzzj7FkAU-219" value="" style="endArrow=classic;html=1;rounded=0;" edge="1" parent="1">
          <mxGeometry width="50" height="50" relative="1" as="geometry">
            <mxPoint x="1258" y="1428.6799999999998" as="sourcePoint" />
            <mxPoint x="1308" y="1428.6799999999998" as="targetPoint" />
          </mxGeometry>
        </mxCell>
        <mxCell id="NnP0CMICDvvqzzj7FkAU-220" value="" style="endArrow=classic;html=1;rounded=0;entryX=0;entryY=0.2;entryDx=0;entryDy=0;entryPerimeter=0;" edge="1" parent="1">
          <mxGeometry width="50" height="50" relative="1" as="geometry">
            <mxPoint x="1258" y="1448.21" as="sourcePoint" />
            <mxPoint x="1308" y="1448.21" as="targetPoint" />
          </mxGeometry>
        </mxCell>
        <mxCell id="NnP0CMICDvvqzzj7FkAU-221" value="" style="endArrow=none;html=1;rounded=0;" edge="1" parent="1">
          <mxGeometry width="50" height="50" relative="1" as="geometry">
            <mxPoint x="1279" y="1433.42" as="sourcePoint" />
            <mxPoint x="1289" y="1423.75" as="targetPoint" />
          </mxGeometry>
        </mxCell>
        <mxCell id="NnP0CMICDvvqzzj7FkAU-222" value="" style="rounded=0;whiteSpace=wrap;html=1;fillColor=default;" vertex="1" parent="1">
          <mxGeometry x="989.5" y="1564" width="270" height="130" as="geometry" />
        </mxCell>
        <mxCell id="NnP0CMICDvvqzzj7FkAU-232" value="round_key_en" style="text;html=1;strokeColor=none;fillColor=none;align=right;verticalAlign=middle;whiteSpace=wrap;rounded=0;" vertex="1" parent="1">
          <mxGeometry x="1238" y="1457.5" width="20" height="20" as="geometry" />
        </mxCell>
        <mxCell id="NnP0CMICDvvqzzj7FkAU-233" value="round_num [3:0]" style="text;html=1;strokeColor=none;fillColor=none;align=right;verticalAlign=middle;whiteSpace=wrap;rounded=0;" vertex="1" parent="1">
          <mxGeometry x="1158" y="1476.5" width="100" height="20" as="geometry" />
        </mxCell>
        <mxCell id="NnP0CMICDvvqzzj7FkAU-234" value="" style="endArrow=classic;html=1;rounded=0;entryX=0;entryY=0.2;entryDx=0;entryDy=0;entryPerimeter=0;" edge="1" parent="1">
          <mxGeometry width="50" height="50" relative="1" as="geometry">
            <mxPoint x="1258" y="1468.36" as="sourcePoint" />
            <mxPoint x="1308" y="1468.3600000000001" as="targetPoint" />
          </mxGeometry>
        </mxCell>
        <mxCell id="NnP0CMICDvvqzzj7FkAU-235" value="" style="endArrow=classic;html=1;rounded=0;entryX=0;entryY=0.2;entryDx=0;entryDy=0;entryPerimeter=0;" edge="1" parent="1">
          <mxGeometry width="50" height="50" relative="1" as="geometry">
            <mxPoint x="1258" y="1486.36" as="sourcePoint" />
            <mxPoint x="1308" y="1486.3600000000001" as="targetPoint" />
          </mxGeometry>
        </mxCell>
        <mxCell id="NnP0CMICDvvqzzj7FkAU-236" value="" style="endArrow=none;html=1;rounded=0;" edge="1" parent="1">
          <mxGeometry width="50" height="50" relative="1" as="geometry">
            <mxPoint x="1278" y="1491.17" as="sourcePoint" />
            <mxPoint x="1288" y="1481.5" as="targetPoint" />
          </mxGeometry>
        </mxCell>
        <mxCell id="NnP0CMICDvvqzzj7FkAU-244" value="round_num [3:0]" style="text;html=1;strokeColor=none;fillColor=none;align=left;verticalAlign=middle;whiteSpace=wrap;rounded=0;" vertex="1" parent="1">
          <mxGeometry x="993" y="1636" width="121" height="20" as="geometry" />
        </mxCell>
        <mxCell id="NnP0CMICDvvqzzj7FkAU-245" value="cipher_new_en" style="text;html=1;strokeColor=none;fillColor=none;align=right;verticalAlign=middle;whiteSpace=wrap;rounded=0;" vertex="1" parent="1">
          <mxGeometry x="1057.5" y="1654" width="20" height="20" as="geometry" />
        </mxCell>
        <mxCell id="NnP0CMICDvvqzzj7FkAU-246" value="cipher_key [127:0]" style="text;html=1;strokeColor=none;fillColor=none;align=left;verticalAlign=middle;whiteSpace=wrap;rounded=0;" vertex="1" parent="1">
          <mxGeometry x="993" y="1619" width="118.5" height="20" as="geometry" />
        </mxCell>
        <mxCell id="NnP0CMICDvvqzzj7FkAU-247" value="clk" style="text;html=1;strokeColor=none;fillColor=none;align=right;verticalAlign=middle;whiteSpace=wrap;rounded=0;" vertex="1" parent="1">
          <mxGeometry x="991.5" y="1570" width="20" height="20" as="geometry" />
        </mxCell>
        <mxCell id="NnP0CMICDvvqzzj7FkAU-248" value="reset_n" style="text;html=1;strokeColor=none;fillColor=none;align=right;verticalAlign=middle;whiteSpace=wrap;rounded=0;" vertex="1" parent="1">
          <mxGeometry x="1017.5" y="1585" width="20" height="20" as="geometry" />
        </mxCell>
        <mxCell id="NnP0CMICDvvqzzj7FkAU-249" value="en" style="text;html=1;strokeColor=none;fillColor=none;align=right;verticalAlign=middle;whiteSpace=wrap;rounded=0;" vertex="1" parent="1">
          <mxGeometry x="991.5" y="1599" width="20" height="20" as="geometry" />
        </mxCell>
        <mxCell id="NnP0CMICDvvqzzj7FkAU-250" value="round_key_en" style="text;html=1;strokeColor=none;fillColor=none;align=right;verticalAlign=middle;whiteSpace=wrap;rounded=0;" vertex="1" parent="1">
          <mxGeometry x="1052.5" y="1671" width="20" height="20" as="geometry" />
        </mxCell>
        <mxCell id="NnP0CMICDvvqzzj7FkAU-251" value="round_key [127:0]" style="text;html=1;strokeColor=none;fillColor=none;align=left;verticalAlign=middle;whiteSpace=wrap;rounded=0;" vertex="1" parent="1">
          <mxGeometry x="1155" y="1624" width="100" height="20" as="geometry" />
        </mxCell>
        <mxCell id="NnP0CMICDvvqzzj7FkAU-256" value="" style="endArrow=none;html=1;rounded=0;" edge="1" parent="1">
          <mxGeometry width="50" height="50" relative="1" as="geometry">
            <mxPoint x="888" y="1579" as="sourcePoint" />
            <mxPoint x="888" y="1424" as="targetPoint" />
          </mxGeometry>
        </mxCell>
        <mxCell id="NnP0CMICDvvqzzj7FkAU-258" value="" style="endArrow=none;html=1;rounded=0;" edge="1" parent="1">
          <mxGeometry width="50" height="50" relative="1" as="geometry">
            <mxPoint x="878" y="1596" as="sourcePoint" />
            <mxPoint x="878" y="1439" as="targetPoint" />
          </mxGeometry>
        </mxCell>
        <mxCell id="NnP0CMICDvvqzzj7FkAU-259" value="" style="endArrow=none;html=1;rounded=0;" edge="1" parent="1">
          <mxGeometry width="50" height="50" relative="1" as="geometry">
            <mxPoint x="868" y="1610" as="sourcePoint" />
            <mxPoint x="868" y="1453" as="targetPoint" />
          </mxGeometry>
        </mxCell>
        <mxCell id="NnP0CMICDvvqzzj7FkAU-260" value="" style="endArrow=classic;html=1;rounded=0;entryX=-0.003;entryY=0.304;entryDx=0;entryDy=0;entryPerimeter=0;endFill=1;" edge="1" parent="1">
          <mxGeometry width="50" height="50" relative="1" as="geometry">
            <mxPoint x="868" y="1610" as="sourcePoint" />
            <mxPoint x="907.19" y="1609.52" as="targetPoint" />
          </mxGeometry>
        </mxCell>
        <mxCell id="NnP0CMICDvvqzzj7FkAU-261" value="" style="endArrow=classic;html=1;rounded=0;entryX=-0.003;entryY=0.304;entryDx=0;entryDy=0;entryPerimeter=0;endFill=1;" edge="1" parent="1">
          <mxGeometry width="50" height="50" relative="1" as="geometry">
            <mxPoint x="878" y="1596" as="sourcePoint" />
            <mxPoint x="908" y="1596" as="targetPoint" />
          </mxGeometry>
        </mxCell>
        <mxCell id="NnP0CMICDvvqzzj7FkAU-262" value="" style="endArrow=classic;html=1;rounded=0;entryX=0;entryY=0.2;entryDx=0;entryDy=0;entryPerimeter=0;" edge="1" parent="1">
          <mxGeometry width="50" height="50" relative="1" as="geometry">
            <mxPoint x="868" y="1680.6999999999998" as="sourcePoint" />
            <mxPoint x="908" y="1680" as="targetPoint" />
          </mxGeometry>
        </mxCell>
        <mxCell id="NnP0CMICDvvqzzj7FkAU-263" value="" style="endArrow=none;html=1;rounded=0;" edge="1" parent="1">
          <mxGeometry width="50" height="50" relative="1" as="geometry">
            <mxPoint x="858" y="1666" as="sourcePoint" />
            <mxPoint x="858" y="1506" as="targetPoint" />
          </mxGeometry>
        </mxCell>
        <mxCell id="NnP0CMICDvvqzzj7FkAU-264" value="" style="endArrow=classic;html=1;rounded=0;entryX=-0.003;entryY=0.727;entryDx=0;entryDy=0;entryPerimeter=0;endFill=1;" edge="1" parent="1">
          <mxGeometry width="50" height="50" relative="1" as="geometry">
            <mxPoint x="858" y="1666.24" as="sourcePoint" />
            <mxPoint x="907.19" y="1666" as="targetPoint" />
          </mxGeometry>
        </mxCell>
        <mxCell id="NnP0CMICDvvqzzj7FkAU-265" value="" style="endArrow=classic;html=1;rounded=0;entryX=0;entryY=0.2;entryDx=0;entryDy=0;entryPerimeter=0;" edge="1" parent="1">
          <mxGeometry width="50" height="50" relative="1" as="geometry">
            <mxPoint x="868" y="1646.35" as="sourcePoint" />
            <mxPoint x="908" y="1645.65" as="targetPoint" />
          </mxGeometry>
        </mxCell>
        <mxCell id="NnP0CMICDvvqzzj7FkAU-266" value="" style="endArrow=classic;html=1;rounded=0;entryX=0;entryY=0.2;entryDx=0;entryDy=0;entryPerimeter=0;" edge="1" parent="1">
          <mxGeometry width="50" height="50" relative="1" as="geometry">
            <mxPoint x="868" y="1629.35" as="sourcePoint" />
            <mxPoint x="908" y="1628.65" as="targetPoint" />
          </mxGeometry>
        </mxCell>
        <mxCell id="NnP0CMICDvvqzzj7FkAU-267" value="" style="endArrow=none;html=1;rounded=0;" edge="1" parent="1">
          <mxGeometry width="50" height="50" relative="1" as="geometry">
            <mxPoint x="819" y="1418.67" as="sourcePoint" />
            <mxPoint x="838.5" y="1418.67" as="targetPoint" />
          </mxGeometry>
        </mxCell>
        <mxCell id="NnP0CMICDvvqzzj7FkAU-268" value="" style="endArrow=none;html=1;rounded=0;" edge="1" parent="1">
          <mxGeometry width="50" height="50" relative="1" as="geometry">
            <mxPoint x="819" y="1428.67" as="sourcePoint" />
            <mxPoint x="839" y="1428.67" as="targetPoint" />
            <Array as="points">
              <mxPoint x="819" y="1428.67" />
            </Array>
          </mxGeometry>
        </mxCell>
        <mxCell id="NnP0CMICDvvqzzj7FkAU-269" value="" style="endArrow=none;html=1;rounded=0;" edge="1" parent="1">
          <mxGeometry width="50" height="50" relative="1" as="geometry">
            <mxPoint x="819.5" y="1428.67" as="sourcePoint" />
            <mxPoint x="819.5" y="1418.67" as="targetPoint" />
          </mxGeometry>
        </mxCell>
        <mxCell id="NnP0CMICDvvqzzj7FkAU-270" value="" style="endArrow=none;html=1;rounded=0;" edge="1" parent="1">
          <mxGeometry width="50" height="50" relative="1" as="geometry">
            <mxPoint x="838.5" y="1418.67" as="sourcePoint" />
            <mxPoint x="848.5" y="1423.67" as="targetPoint" />
          </mxGeometry>
        </mxCell>
        <mxCell id="NnP0CMICDvvqzzj7FkAU-271" value="" style="endArrow=none;html=1;rounded=0;" edge="1" parent="1">
          <mxGeometry width="50" height="50" relative="1" as="geometry">
            <mxPoint x="838.5" y="1428.67" as="sourcePoint" />
            <mxPoint x="848.5" y="1423.67" as="targetPoint" />
          </mxGeometry>
        </mxCell>
        <mxCell id="NnP0CMICDvvqzzj7FkAU-272" value="" style="endArrow=none;html=1;rounded=0;" edge="1" parent="1">
          <mxGeometry width="50" height="50" relative="1" as="geometry">
            <mxPoint x="819" y="1433.67" as="sourcePoint" />
            <mxPoint x="838.5" y="1433.67" as="targetPoint" />
          </mxGeometry>
        </mxCell>
        <mxCell id="NnP0CMICDvvqzzj7FkAU-273" value="" style="endArrow=none;html=1;rounded=0;" edge="1" parent="1">
          <mxGeometry width="50" height="50" relative="1" as="geometry">
            <mxPoint x="819" y="1443.67" as="sourcePoint" />
            <mxPoint x="839" y="1443.67" as="targetPoint" />
            <Array as="points">
              <mxPoint x="819" y="1443.67" />
            </Array>
          </mxGeometry>
        </mxCell>
        <mxCell id="NnP0CMICDvvqzzj7FkAU-274" value="" style="endArrow=none;html=1;rounded=0;" edge="1" parent="1">
          <mxGeometry width="50" height="50" relative="1" as="geometry">
            <mxPoint x="819.5" y="1443.67" as="sourcePoint" />
            <mxPoint x="819.5" y="1433.67" as="targetPoint" />
          </mxGeometry>
        </mxCell>
        <mxCell id="NnP0CMICDvvqzzj7FkAU-275" value="" style="endArrow=none;html=1;rounded=0;" edge="1" parent="1">
          <mxGeometry width="50" height="50" relative="1" as="geometry">
            <mxPoint x="838.5" y="1433.67" as="sourcePoint" />
            <mxPoint x="848.5" y="1438.67" as="targetPoint" />
          </mxGeometry>
        </mxCell>
        <mxCell id="NnP0CMICDvvqzzj7FkAU-276" value="" style="endArrow=none;html=1;rounded=0;" edge="1" parent="1">
          <mxGeometry width="50" height="50" relative="1" as="geometry">
            <mxPoint x="838.5" y="1443.67" as="sourcePoint" />
            <mxPoint x="848.5" y="1438.67" as="targetPoint" />
          </mxGeometry>
        </mxCell>
        <mxCell id="NnP0CMICDvvqzzj7FkAU-277" value="" style="endArrow=none;html=1;rounded=0;" edge="1" parent="1">
          <mxGeometry width="50" height="50" relative="1" as="geometry">
            <mxPoint x="819" y="1447.5" as="sourcePoint" />
            <mxPoint x="838.5" y="1447.5" as="targetPoint" />
          </mxGeometry>
        </mxCell>
        <mxCell id="NnP0CMICDvvqzzj7FkAU-278" value="" style="endArrow=none;html=1;rounded=0;" edge="1" parent="1">
          <mxGeometry width="50" height="50" relative="1" as="geometry">
            <mxPoint x="819" y="1457.5" as="sourcePoint" />
            <mxPoint x="839" y="1457.5" as="targetPoint" />
            <Array as="points">
              <mxPoint x="819" y="1457.5" />
            </Array>
          </mxGeometry>
        </mxCell>
        <mxCell id="NnP0CMICDvvqzzj7FkAU-279" value="" style="endArrow=none;html=1;rounded=0;" edge="1" parent="1">
          <mxGeometry width="50" height="50" relative="1" as="geometry">
            <mxPoint x="819.5" y="1457.5" as="sourcePoint" />
            <mxPoint x="819.5" y="1447.5" as="targetPoint" />
          </mxGeometry>
        </mxCell>
        <mxCell id="NnP0CMICDvvqzzj7FkAU-280" value="" style="endArrow=none;html=1;rounded=0;" edge="1" parent="1">
          <mxGeometry width="50" height="50" relative="1" as="geometry">
            <mxPoint x="838.5" y="1447.5" as="sourcePoint" />
            <mxPoint x="848.5" y="1452.5" as="targetPoint" />
          </mxGeometry>
        </mxCell>
        <mxCell id="NnP0CMICDvvqzzj7FkAU-281" value="" style="endArrow=none;html=1;rounded=0;" edge="1" parent="1">
          <mxGeometry width="50" height="50" relative="1" as="geometry">
            <mxPoint x="838.5" y="1457.5" as="sourcePoint" />
            <mxPoint x="848.5" y="1452.5" as="targetPoint" />
          </mxGeometry>
        </mxCell>
        <mxCell id="NnP0CMICDvvqzzj7FkAU-282" value="" style="endArrow=none;html=1;rounded=0;" edge="1" parent="1">
          <mxGeometry width="50" height="50" relative="1" as="geometry">
            <mxPoint x="909" y="1467.33" as="sourcePoint" />
            <mxPoint x="928.5" y="1467.33" as="targetPoint" />
          </mxGeometry>
        </mxCell>
        <mxCell id="NnP0CMICDvvqzzj7FkAU-283" value="" style="endArrow=none;html=1;rounded=0;" edge="1" parent="1">
          <mxGeometry width="50" height="50" relative="1" as="geometry">
            <mxPoint x="909" y="1477.33" as="sourcePoint" />
            <mxPoint x="929" y="1477.33" as="targetPoint" />
            <Array as="points">
              <mxPoint x="909" y="1477.33" />
            </Array>
          </mxGeometry>
        </mxCell>
        <mxCell id="NnP0CMICDvvqzzj7FkAU-284" value="" style="endArrow=none;html=1;rounded=0;" edge="1" parent="1">
          <mxGeometry width="50" height="50" relative="1" as="geometry">
            <mxPoint x="909.5" y="1477.33" as="sourcePoint" />
            <mxPoint x="909.5" y="1467.33" as="targetPoint" />
          </mxGeometry>
        </mxCell>
        <mxCell id="NnP0CMICDvvqzzj7FkAU-285" value="" style="endArrow=none;html=1;rounded=0;" edge="1" parent="1">
          <mxGeometry width="50" height="50" relative="1" as="geometry">
            <mxPoint x="928.5" y="1467.33" as="sourcePoint" />
            <mxPoint x="938.5" y="1472.33" as="targetPoint" />
          </mxGeometry>
        </mxCell>
        <mxCell id="NnP0CMICDvvqzzj7FkAU-286" value="" style="endArrow=none;html=1;rounded=0;" edge="1" parent="1">
          <mxGeometry width="50" height="50" relative="1" as="geometry">
            <mxPoint x="928.5" y="1477.33" as="sourcePoint" />
            <mxPoint x="938.5" y="1472.33" as="targetPoint" />
          </mxGeometry>
        </mxCell>
        <mxCell id="NnP0CMICDvvqzzj7FkAU-287" value="" style="endArrow=none;html=1;rounded=0;" edge="1" parent="1">
          <mxGeometry width="50" height="50" relative="1" as="geometry">
            <mxPoint x="909" y="1483.17" as="sourcePoint" />
            <mxPoint x="928.5" y="1483.17" as="targetPoint" />
          </mxGeometry>
        </mxCell>
        <mxCell id="NnP0CMICDvvqzzj7FkAU-288" value="" style="endArrow=none;html=1;rounded=0;" edge="1" parent="1">
          <mxGeometry width="50" height="50" relative="1" as="geometry">
            <mxPoint x="909" y="1493.17" as="sourcePoint" />
            <mxPoint x="929" y="1493.17" as="targetPoint" />
            <Array as="points">
              <mxPoint x="909" y="1493.17" />
            </Array>
          </mxGeometry>
        </mxCell>
        <mxCell id="NnP0CMICDvvqzzj7FkAU-289" value="" style="endArrow=none;html=1;rounded=0;" edge="1" parent="1">
          <mxGeometry width="50" height="50" relative="1" as="geometry">
            <mxPoint x="909.5" y="1493.17" as="sourcePoint" />
            <mxPoint x="909.5" y="1483.17" as="targetPoint" />
          </mxGeometry>
        </mxCell>
        <mxCell id="NnP0CMICDvvqzzj7FkAU-290" value="" style="endArrow=none;html=1;rounded=0;" edge="1" parent="1">
          <mxGeometry width="50" height="50" relative="1" as="geometry">
            <mxPoint x="928.5" y="1483.17" as="sourcePoint" />
            <mxPoint x="938.5" y="1488.17" as="targetPoint" />
          </mxGeometry>
        </mxCell>
        <mxCell id="NnP0CMICDvvqzzj7FkAU-291" value="" style="endArrow=none;html=1;rounded=0;" edge="1" parent="1">
          <mxGeometry width="50" height="50" relative="1" as="geometry">
            <mxPoint x="928.5" y="1493.17" as="sourcePoint" />
            <mxPoint x="938.5" y="1488.17" as="targetPoint" />
          </mxGeometry>
        </mxCell>
        <mxCell id="NnP0CMICDvvqzzj7FkAU-292" value="" style="endArrow=none;html=1;rounded=0;" edge="1" parent="1">
          <mxGeometry width="50" height="50" relative="1" as="geometry">
            <mxPoint x="819" y="1501.33" as="sourcePoint" />
            <mxPoint x="838.5" y="1501.33" as="targetPoint" />
          </mxGeometry>
        </mxCell>
        <mxCell id="NnP0CMICDvvqzzj7FkAU-293" value="" style="endArrow=none;html=1;rounded=0;" edge="1" parent="1">
          <mxGeometry width="50" height="50" relative="1" as="geometry">
            <mxPoint x="819" y="1511.33" as="sourcePoint" />
            <mxPoint x="839" y="1511.33" as="targetPoint" />
            <Array as="points">
              <mxPoint x="819" y="1511.33" />
            </Array>
          </mxGeometry>
        </mxCell>
        <mxCell id="NnP0CMICDvvqzzj7FkAU-294" value="" style="endArrow=none;html=1;rounded=0;" edge="1" parent="1">
          <mxGeometry width="50" height="50" relative="1" as="geometry">
            <mxPoint x="819.5" y="1511.33" as="sourcePoint" />
            <mxPoint x="819.5" y="1501.33" as="targetPoint" />
          </mxGeometry>
        </mxCell>
        <mxCell id="NnP0CMICDvvqzzj7FkAU-295" value="" style="endArrow=none;html=1;rounded=0;" edge="1" parent="1">
          <mxGeometry width="50" height="50" relative="1" as="geometry">
            <mxPoint x="838.5" y="1501.33" as="sourcePoint" />
            <mxPoint x="848.5" y="1506.33" as="targetPoint" />
          </mxGeometry>
        </mxCell>
        <mxCell id="NnP0CMICDvvqzzj7FkAU-296" value="" style="endArrow=none;html=1;rounded=0;" edge="1" parent="1">
          <mxGeometry width="50" height="50" relative="1" as="geometry">
            <mxPoint x="838.5" y="1511.33" as="sourcePoint" />
            <mxPoint x="848.5" y="1506.33" as="targetPoint" />
          </mxGeometry>
        </mxCell>
        <mxCell id="NnP0CMICDvvqzzj7FkAU-302" value="round_key [127:0]" style="text;html=1;strokeColor=none;fillColor=none;align=left;verticalAlign=middle;whiteSpace=wrap;rounded=0;" vertex="1" parent="1">
          <mxGeometry x="989.5" y="1512" width="100" height="20" as="geometry" />
        </mxCell>
        <mxCell id="NnP0CMICDvvqzzj7FkAU-303" value="" style="endArrow=classic;html=1;rounded=0;entryX=0;entryY=0.2;entryDx=0;entryDy=0;entryPerimeter=0;" edge="1" parent="1">
          <mxGeometry width="50" height="50" relative="1" as="geometry">
            <mxPoint x="948" y="1524.6999999999998" as="sourcePoint" />
            <mxPoint x="988" y="1524" as="targetPoint" />
          </mxGeometry>
        </mxCell>
        <mxCell id="NnP0CMICDvvqzzj7FkAU-304" value="" style="endArrow=none;html=1;rounded=0;" edge="1" parent="1">
          <mxGeometry width="50" height="50" relative="1" as="geometry">
            <mxPoint x="952" y="1529" as="sourcePoint" />
            <mxPoint x="962" y="1519" as="targetPoint" />
          </mxGeometry>
        </mxCell>
      </root>
    </mxGraphModel>
  </diagram>
  <diagram id="GU7vtaR6Q7wg2JUrbtTb" name="verification environment">
    <mxGraphModel dx="815" dy="434" grid="1" gridSize="10" guides="1" tooltips="1" connect="1" arrows="1" fold="1" page="1" pageScale="1" pageWidth="827" pageHeight="1169" math="0" shadow="0">
      <root>
        <mxCell id="0" />
        <mxCell id="1" parent="0" />
        <mxCell id="rbBsbjtyGEq9GtWs4dIj-34" value="" style="rounded=0;whiteSpace=wrap;html=1;" vertex="1" parent="1">
          <mxGeometry x="70" y="60" width="660" height="310" as="geometry" />
        </mxCell>
        <mxCell id="rbBsbjtyGEq9GtWs4dIj-1" value="" style="rounded=0;whiteSpace=wrap;html=1;" vertex="1" parent="1">
          <mxGeometry x="80" y="80" width="440" height="279" as="geometry" />
        </mxCell>
        <mxCell id="rbBsbjtyGEq9GtWs4dIj-4" value="aes_DUT" style="rounded=0;whiteSpace=wrap;html=1;" vertex="1" parent="1">
          <mxGeometry x="600" y="196" width="120" height="163" as="geometry" />
        </mxCell>
        <mxCell id="rbBsbjtyGEq9GtWs4dIj-5" value="aes_scoreboard" style="rounded=0;whiteSpace=wrap;html=1;" vertex="1" parent="1">
          <mxGeometry x="280" y="87" width="200" height="60" as="geometry" />
        </mxCell>
        <mxCell id="rbBsbjtyGEq9GtWs4dIj-16" value="" style="rounded=0;whiteSpace=wrap;html=1;" vertex="1" parent="1">
          <mxGeometry x="93" y="170" width="417" height="180" as="geometry" />
        </mxCell>
        <mxCell id="rbBsbjtyGEq9GtWs4dIj-6" value="aes_driver" style="rounded=0;whiteSpace=wrap;html=1;" vertex="1" parent="1">
          <mxGeometry x="380" y="280" width="120" height="60" as="geometry" />
        </mxCell>
        <mxCell id="rbBsbjtyGEq9GtWs4dIj-7" value="aes_monitor" style="rounded=0;whiteSpace=wrap;html=1;" vertex="1" parent="1">
          <mxGeometry x="380" y="196" width="120" height="60" as="geometry" />
        </mxCell>
        <mxCell id="rbBsbjtyGEq9GtWs4dIj-8" value="aes_sequencer" style="rounded=0;whiteSpace=wrap;html=1;" vertex="1" parent="1">
          <mxGeometry x="215" y="280" width="120" height="60" as="geometry" />
        </mxCell>
        <mxCell id="rbBsbjtyGEq9GtWs4dIj-13" value="" style="rounded=0;whiteSpace=wrap;html=1;align=center;" vertex="1" parent="1">
          <mxGeometry x="108" y="188" width="90" height="90" as="geometry" />
        </mxCell>
        <mxCell id="rbBsbjtyGEq9GtWs4dIj-12" value="" style="rounded=0;whiteSpace=wrap;html=1;" vertex="1" parent="1">
          <mxGeometry x="120" y="210" width="40" height="40" as="geometry" />
        </mxCell>
        <mxCell id="rbBsbjtyGEq9GtWs4dIj-10" value="" style="rounded=0;whiteSpace=wrap;html=1;" vertex="1" parent="1">
          <mxGeometry x="130" y="220" width="40" height="40" as="geometry" />
        </mxCell>
        <mxCell id="rbBsbjtyGEq9GtWs4dIj-9" value="item" style="rounded=0;whiteSpace=wrap;html=1;" vertex="1" parent="1">
          <mxGeometry x="140" y="230" width="40" height="40" as="geometry" />
        </mxCell>
        <mxCell id="rbBsbjtyGEq9GtWs4dIj-14" value="aes_sequence" style="text;html=1;strokeColor=none;fillColor=none;align=center;verticalAlign=middle;whiteSpace=wrap;rounded=0;" vertex="1" parent="1">
          <mxGeometry x="123" y="184" width="60" height="30" as="geometry" />
        </mxCell>
        <mxCell id="rbBsbjtyGEq9GtWs4dIj-15" value="aes_environment" style="text;html=1;strokeColor=none;fillColor=none;align=center;verticalAlign=middle;whiteSpace=wrap;rounded=0;" vertex="1" parent="1">
          <mxGeometry x="120" y="90" width="60" height="30" as="geometry" />
        </mxCell>
        <mxCell id="rbBsbjtyGEq9GtWs4dIj-17" value="aes_agent" style="text;html=1;strokeColor=none;fillColor=none;align=center;verticalAlign=middle;whiteSpace=wrap;rounded=0;" vertex="1" parent="1">
          <mxGeometry x="250" y="171" width="60" height="30" as="geometry" />
        </mxCell>
        <mxCell id="rbBsbjtyGEq9GtWs4dIj-18" value="" style="shape=flexArrow;endArrow=classic;html=1;rounded=0;fillColor=default;" edge="1" parent="1">
          <mxGeometry width="50" height="50" relative="1" as="geometry">
            <mxPoint x="420" y="190" as="sourcePoint" />
            <mxPoint x="420.28999999999996" y="150" as="targetPoint" />
          </mxGeometry>
        </mxCell>
        <mxCell id="rbBsbjtyGEq9GtWs4dIj-28" value="" style="group" vertex="1" connectable="0" parent="1">
          <mxGeometry x="150" y="280" width="60" height="50" as="geometry" />
        </mxCell>
        <mxCell id="rbBsbjtyGEq9GtWs4dIj-19" value="" style="endArrow=none;html=1;rounded=0;" edge="1" parent="rbBsbjtyGEq9GtWs4dIj-28">
          <mxGeometry width="50" height="50" relative="1" as="geometry">
            <mxPoint y="40" as="sourcePoint" />
            <mxPoint as="targetPoint" />
          </mxGeometry>
        </mxCell>
        <mxCell id="rbBsbjtyGEq9GtWs4dIj-20" value="" style="endArrow=none;html=1;rounded=0;" edge="1" parent="rbBsbjtyGEq9GtWs4dIj-28">
          <mxGeometry width="50" height="50" relative="1" as="geometry">
            <mxPoint y="40" as="sourcePoint" />
            <mxPoint x="40" y="40" as="targetPoint" />
          </mxGeometry>
        </mxCell>
        <mxCell id="rbBsbjtyGEq9GtWs4dIj-21" value="" style="endArrow=none;html=1;rounded=0;" edge="1" parent="rbBsbjtyGEq9GtWs4dIj-28">
          <mxGeometry width="50" height="50" relative="1" as="geometry">
            <mxPoint x="10" y="30" as="sourcePoint" />
            <mxPoint x="10" as="targetPoint" />
          </mxGeometry>
        </mxCell>
        <mxCell id="rbBsbjtyGEq9GtWs4dIj-22" value="" style="endArrow=none;html=1;rounded=0;" edge="1" parent="rbBsbjtyGEq9GtWs4dIj-28">
          <mxGeometry width="50" height="50" relative="1" as="geometry">
            <mxPoint x="10" y="30" as="sourcePoint" />
            <mxPoint x="40" y="30" as="targetPoint" />
          </mxGeometry>
        </mxCell>
        <mxCell id="rbBsbjtyGEq9GtWs4dIj-23" value="" style="endArrow=none;html=1;rounded=0;" edge="1" parent="rbBsbjtyGEq9GtWs4dIj-28">
          <mxGeometry width="50" height="50" relative="1" as="geometry">
            <mxPoint x="40" y="20" as="sourcePoint" />
            <mxPoint x="40" y="30" as="targetPoint" />
          </mxGeometry>
        </mxCell>
        <mxCell id="rbBsbjtyGEq9GtWs4dIj-24" value="" style="endArrow=none;html=1;rounded=0;" edge="1" parent="rbBsbjtyGEq9GtWs4dIj-28">
          <mxGeometry width="50" height="50" relative="1" as="geometry">
            <mxPoint x="40" y="40" as="sourcePoint" />
            <mxPoint x="40" y="50" as="targetPoint" />
          </mxGeometry>
        </mxCell>
        <mxCell id="rbBsbjtyGEq9GtWs4dIj-25" value="" style="endArrow=none;html=1;rounded=0;endSize=6;" edge="1" parent="rbBsbjtyGEq9GtWs4dIj-28">
          <mxGeometry width="50" height="50" relative="1" as="geometry">
            <mxPoint x="60" y="35" as="sourcePoint" />
            <mxPoint x="40" y="20" as="targetPoint" />
          </mxGeometry>
        </mxCell>
        <mxCell id="rbBsbjtyGEq9GtWs4dIj-26" value="" style="endArrow=none;html=1;rounded=0;" edge="1" parent="rbBsbjtyGEq9GtWs4dIj-28">
          <mxGeometry width="50" height="50" relative="1" as="geometry">
            <mxPoint x="40" y="50" as="sourcePoint" />
            <mxPoint x="60" y="35" as="targetPoint" />
          </mxGeometry>
        </mxCell>
        <mxCell id="rbBsbjtyGEq9GtWs4dIj-27" value="" style="endArrow=none;html=1;rounded=0;" edge="1" parent="rbBsbjtyGEq9GtWs4dIj-28">
          <mxGeometry width="50" height="50" relative="1" as="geometry">
            <mxPoint as="sourcePoint" />
            <mxPoint x="10" as="targetPoint" />
          </mxGeometry>
        </mxCell>
        <mxCell id="rbBsbjtyGEq9GtWs4dIj-29" value="" style="shape=flexArrow;endArrow=classic;html=1;rounded=0;" edge="1" parent="1">
          <mxGeometry width="50" height="50" relative="1" as="geometry">
            <mxPoint x="338" y="309.8" as="sourcePoint" />
            <mxPoint x="378" y="309.8" as="targetPoint" />
          </mxGeometry>
        </mxCell>
        <mxCell id="rbBsbjtyGEq9GtWs4dIj-30" value="" style="shape=flexArrow;endArrow=classic;startArrow=classic;html=1;rounded=0;exitX=1.003;exitY=0.681;exitDx=0;exitDy=0;exitPerimeter=0;entryX=-0.003;entryY=0.456;entryDx=0;entryDy=0;entryPerimeter=0;" edge="1" parent="1" source="rbBsbjtyGEq9GtWs4dIj-1" target="rbBsbjtyGEq9GtWs4dIj-4">
          <mxGeometry width="100" height="100" relative="1" as="geometry">
            <mxPoint x="530" y="270" as="sourcePoint" />
            <mxPoint x="590" y="270" as="targetPoint" />
          </mxGeometry>
        </mxCell>
        <mxCell id="rbBsbjtyGEq9GtWs4dIj-31" value="aes_interface" style="text;html=1;strokeColor=none;fillColor=none;align=center;verticalAlign=middle;whiteSpace=wrap;rounded=0;" vertex="1" parent="1">
          <mxGeometry x="530" y="290" width="60" height="30" as="geometry" />
        </mxCell>
        <mxCell id="rbBsbjtyGEq9GtWs4dIj-35" value="aes_test" style="text;html=1;strokeColor=none;fillColor=none;align=center;verticalAlign=middle;whiteSpace=wrap;rounded=0;" vertex="1" parent="1">
          <mxGeometry x="650" y="70" width="60" height="30" as="geometry" />
        </mxCell>
      </root>
    </mxGraphModel>
  </diagram>
</mxfile>
